<svg width="56" height="56" viewBox="0 0 56 56" fill="none" xmlns="http://www.w3.org/2000/svg">
<path d="M28 53C41.8071 53 53 41.8071 53 28C53 14.1929 41.8071 3 28 3C14.1929 3 3 14.1929 3 28C3 41.8071 14.1929 53 28 53Z" fill="#FEFEFE" stroke="#FEFEFE" stroke-width="5"/>
<path d="M42 22.9483C42 18.0063 38.3814 14 33.9178 14C30.9792 14 28.4146 15.7422 27 18.3389C25.5853 15.7422 23.0208 14 20.0821 14C15.6185 14 12 18.0063 12 22.9483C12 24.078 12.1971 25.1545 12.5421 26.1498C15.2145 34.6605 27.0001 44 27.0001 44C27.0001 44 38.7856 34.6605 41.4581 26.1498C41.8031 25.1546 42 24.078 42 22.9483Z" fill="#474241" stroke="#474241" stroke-width="3" stroke-linecap="round" stroke-linejoin="round"/>
</svg>
