<svg width="100" height="100" viewBox="0 0 100 100" fill="none" xmlns="http://www.w3.org/2000/svg">
<path d="M50.0009 3.87074C50.4369 3.87074 50.7244 4.66614 50.7244 4.66614L64.4846 33.9803L96.8757 38.9293L73.4383 62.9631L78.9715 96.8747L50.0009 80.851L21.0304 96.8747L26.5635 62.9631L3.12616 38.9293L35.5172 33.9803L49.2649 4.69114C49.2649 4.69114 49.565 3.87074 50.0009 3.87074ZM50.0009 0C48.7899 0 47.6883 0.700077 47.1711 1.79707L33.3968 31.1409L2.65425 35.8383C1.49637 36.0149 0.535371 36.8259 0.16191 37.937C-0.209988 39.0465 0.0697169 40.2716 0.888517 41.1107L23.2243 64.0148L17.9458 96.3684C17.7521 97.5497 18.2505 98.7389 19.2303 99.4265C19.7678 99.8078 20.3991 100 21.0304 100C21.5492 100 22.0711 99.8687 22.543 99.6093L50.0009 84.4217L77.4589 99.6093C77.9308 99.8687 78.4527 100 78.9715 100C79.6027 100 80.234 99.8078 80.77 99.4281C81.7498 98.7405 82.2482 97.5513 82.0545 96.3699L76.776 64.0164L99.1118 41.1123C99.929 40.2732 100.21 39.048 99.8384 37.9385C99.4665 36.8275 98.5039 36.018 97.346 35.8399L66.6035 31.1425L52.8308 1.79707C52.3136 0.700077 51.2119 0 50.0009 0Z" fill="#232119"/>
<path d="M54.2724 47.6748C54.2429 48.1325 54.2274 48.5277 54.21 48.8027C54.1667 49.4885 54.1326 50.1958 54.1169 50.9147C54.7954 51.8105 55.394 52.7075 55.9054 53.4933C57.3214 55.6688 58.8462 58.1912 59.268 60.8023C59.3778 61.4824 59.4177 62.4385 59.0137 63.0629C58.3778 64.0455 56.4996 61.5067 56.301 61.1979C54.4077 58.2542 54.0402 54.4437 54.1169 50.9147C52.1777 48.354 49.5863 45.8025 46.5148 45.8828C45.1304 45.919 44.0391 46.5219 43.1853 47.4507C42.9884 47.8399 42.785 48.2257 42.5683 48.6049C42.44 48.8294 42.8147 48.1463 42.8885 47.8985C42.9043 47.8454 42.9201 47.7923 42.9359 47.7393C41.0049 50.1127 40.4021 54.2147 40.3643 56.7428C40.3451 58.024 40.5444 59.2014 40.9732 60.1829C41.4013 59.4948 41.8923 58.8651 42.4553 58.3158C43.3183 57.4736 44.2671 57.241 45.1945 57.3885C45.3223 56.9415 45.4581 56.4799 45.6067 56.0144C45.6757 55.7605 45.7461 55.5072 45.8178 55.2546C46.0328 54.4977 46.8143 51.2663 47.7535 51.5436C47.935 51.3132 48.1276 51.0957 48.3327 50.8937C51.0711 48.1955 53.7443 52.8011 53.8521 55.151C53.9783 57.9017 52.2886 60.2768 50.0145 61.684C51.2357 64.215 51.6303 67.6113 49.1521 69.4112C47.7382 70.4381 44.7299 71.2182 43.9152 69.0721C43.42 67.7677 43.5838 66.1857 43.797 64.7716C43.8174 64.1324 43.8734 63.4915 43.9572 62.8521C42.5334 62.4609 41.5475 61.4975 40.9732 60.1829C40.9509 60.2188 40.9287 60.2549 40.9067 60.2911C41.8392 62.6272 42.1162 65.3141 42.1162 67.7817C42.1162 69.8471 41.9023 72.047 40.8164 73.8569C40.4878 74.4046 39.9397 75.1569 39.2152 75.2132C37.7579 75.3266 38.1287 72.2269 38.1603 71.5587C38.1964 70.7925 38.2536 69.9779 38.3417 69.1386C38.3408 69.1415 38.34 69.1445 38.3392 69.1475C38.2112 69.6142 38.0584 70.9256 37.8212 70.5038C37.4552 69.8532 38.1801 67.0234 38.2168 66.4348C38.4778 62.2486 37.971 58.1864 37.5198 54.0396C37.4589 53.4798 37.4896 52.7451 37.2372 52.2123C37.0773 51.8748 37.1135 52.2147 37.1053 52.4007C36.9624 55.6534 36.0214 58.9739 35.2498 62.121C34.9775 63.2317 34.2564 64.672 34.2243 65.8459C34.224 66.1892 34.2232 66.2902 34.2232 65.9262C34.2232 65.8996 34.2235 65.8728 34.2243 65.8459C34.2248 65.1144 34.2228 63.2827 34.2043 62.5072C34.2019 62.4074 34.1992 62.3076 34.1962 62.2079C34.0767 63.168 33.9628 64.1261 33.8464 65.0785C33.6987 66.287 33.7145 64.5067 33.7145 64.2873V58.2027V54.7554C33.7145 54.735 33.6942 54.0666 33.724 54.6612C33.8499 57.1804 34.1202 59.6853 34.1962 62.2079C34.7262 57.9516 35.3674 53.6557 36.8322 49.641C37.527 47.7366 38.2108 45.8328 38.8196 43.9049C39.3365 42.2679 40.1494 40.7358 40.628 39.0824C41.7687 35.1419 44.2668 31.5983 44.5651 27.4218C44.6776 25.8469 45.5276 24.0678 46.1757 22.6276C46.7162 21.4265 47.1064 20.1589 47.7864 19.039C48.8228 17.3319 48.3505 15.3014 48.6435 13.3971C48.6847 13.1291 49.1296 11.309 49.4818 11.4851C49.9447 11.7165 49.8208 12.777 49.8208 13.1805C49.8208 14.3741 50.0521 15.5317 50.1505 16.7125C50.4116 19.8454 51.5799 22.7208 52.2321 25.7641C52.5302 27.1555 53.3126 28.5629 54.0593 29.7577C55.0974 31.4187 55.3477 33.5868 55.6511 35.475C55.776 36.2522 56.1839 37.763 55.2273 37.9804C54.5139 38.1425 53.8306 38.0905 53.2399 37.6225C52.825 37.2937 52.4378 36.9247 52.0747 36.5267C52.2849 37.0706 52.4964 37.614 52.7076 38.1573C53.5355 38.1728 53.9028 38.8711 54.3984 39.704C55.0245 40.7562 55.5138 41.8582 55.8963 42.9942C56.6762 45.3098 57.0127 47.7665 57.1612 50.2299C57.2514 51.7272 57.2721 53.2269 57.2806 54.6989C57.2921 56.6884 56.67 53.9853 56.4517 53.4179C55.7168 51.5072 54.9826 49.5952 54.2724 47.6748Z" fill="#232119"/>
<path d="M55.9243 42.9818C54.33 43.6651 54.2907 47.5272 54.21 48.8027C53.9537 52.8553 54.022 57.6545 56.301 61.1979C56.4996 61.5067 58.3778 64.0455 59.0137 63.0629C59.4177 62.4385 59.3778 61.4824 59.268 60.8024C58.8462 58.1912 57.3214 55.6688 55.9054 53.4933C53.932 50.4613 50.6609 45.7744 46.5148 45.8828C41.6783 46.0093 40.4196 53.0526 40.3643 56.7428C40.3075 60.5328 42.1629 63.4137 46.2134 63.0064C50.0728 62.6183 54.0431 59.3151 53.8521 55.151C53.7443 52.8011 51.0711 48.1955 48.3327 50.8937C46.4701 52.7288 45.6294 55.8414 44.9513 58.2498C44.345 60.4033 43.8439 62.678 43.7927 64.9278C43.7296 67.7062 46.0218 65.3311 46.8256 64.2497C49.16 61.1091 49.9967 56.1402 48.4739 52.4855C47.236 49.5145 46.086 54.3104 45.8178 55.2546C45.0207 58.0608 44.3911 60.9525 43.9434 63.8352C43.6928 65.4493 43.307 67.4701 43.9152 69.0721C44.7299 71.2182 47.7382 70.4381 49.1521 69.4112C52.0725 67.2901 51.0033 62.9519 49.2934 60.4256C47.8494 58.2923 44.8281 56.0004 42.4553 58.3158C39.2236 61.4692 38.3626 67.2721 38.1603 71.5587C38.1287 72.2269 37.7579 75.3266 39.2152 75.2132C39.9397 75.1569 40.4878 74.4046 40.8164 73.8569C41.9023 72.047 42.1162 69.8471 42.1162 67.7817C42.1162 65.0691 41.7815 62.0914 40.6092 59.6061C40.41 59.184 40.0404 58.3164 39.9027 59.2953C39.4366 62.61 39.2306 65.8964 38.3392 69.1475C38.2112 69.6142 38.0584 70.9256 37.8212 70.5038C37.4552 69.8532 38.1801 67.0234 38.2168 66.4348C38.4778 62.2486 37.971 58.1864 37.5198 54.0396C37.4589 53.4798 37.4896 52.7451 37.2372 52.2123C37.0773 51.8748 37.1135 52.2147 37.1053 52.4007C36.9624 55.6534 36.0214 58.9739 35.2498 62.121C34.9713 63.2572 34.2232 64.7382 34.2232 65.9262C34.2232 67.0659 34.2314 63.6465 34.2043 62.5072C34.1418 59.8833 33.8549 57.28 33.724 54.6612C33.6942 54.0666 33.7145 54.735 33.7145 54.7554C33.7145 55.9045 33.7145 57.0536 33.7145 58.2027C33.7145 60.2309 33.7145 62.2591 33.7145 64.2873C33.7145 64.5067 33.6987 66.287 33.8464 65.0785C34.4788 59.9041 35.0369 54.5613 36.8322 49.641C37.527 47.7366 38.2108 45.8328 38.8196 43.9049C39.3365 42.2679 40.1494 40.7358 40.628 39.0824C41.7687 35.1419 44.2668 31.5983 44.5651 27.4218C44.6776 25.8469 45.5276 24.0678 46.1757 22.6276C46.7162 21.4265 47.1064 20.1589 47.7864 19.039C48.8228 17.3319 48.3505 15.3014 48.6435 13.3971C48.6847 13.1291 49.1296 11.309 49.4818 11.4851C49.9447 11.7165 49.8208 12.777 49.8208 13.1805C49.8208 14.3741 50.0521 15.5317 50.1505 16.7125C50.4116 19.8454 51.5799 22.7208 52.2321 25.7641C52.5302 27.1555 53.3126 28.5629 54.0593 29.7577C55.0974 31.4187 55.3477 33.5868 55.6511 35.475C55.776 36.2522 56.1839 37.763 55.2273 37.9804C54.5139 38.1425 53.8306 38.0905 53.2399 37.6225C51.3282 36.1076 50.0054 33.741 48.9166 31.6038C48.6284 31.0379 48.1829 29.2383 48.1254 29.8707C48.0014 31.2346 47.9637 32.5659 47.6733 33.9208C47.0738 36.7186 45.8343 39.3268 44.81 41.9834C44.0576 43.9346 43.4841 45.8992 42.8885 47.8985C42.8147 48.1463 42.44 48.8294 42.5683 48.6049C43.5186 46.9419 44.2154 45.1508 45.215 43.5093C46.8604 40.8073 49.1007 39.0151 52.185 38.2253C53.4013 37.9138 53.8091 38.7137 54.3984 39.704C57.0764 44.2045 57.2512 49.6172 57.2806 54.6989C57.2921 56.6884 56.67 53.9853 56.4517 53.4179C54.3191 47.873 52.1926 42.3181 50.6403 36.577C49.7981 33.4623 48.8036 30.172 48.8036 26.9132C48.8036 25.6896 49.4918 29.262 49.8679 30.4264C51.14 34.3649 52.7806 38.2109 54.21 42.0964C57.317 50.5419 60.3684 59.0491 62.8754 67.697C63.4907 69.8194 64.1134 71.9371 64.8345 74.0265C65.2104 75.1154 65.8265 76.0969 66.2474 77.1724C66.5677 77.9909 67.1587 79.1032 66.2851 77.4455C64.8732 74.7667 63.3674 72.1819 61.7075 69.6467C60.8978 68.4101 60.0891 67.1575 59.1644 66.0016C58.8871 65.655 58.4918 65.0903 57.9964 65.022C55.9967 64.7462 56.9332 71.2735 57.0922 72.0862C57.8451 75.9325 59.7278 80.3065 62.1031 83.4736C63.2027 84.9398 64.9209 85.8592 66.1344 87.1941C66.9702 88.1135 67.9555 88.8516 69.0542 89.351C69.8419 89.709 70.6518 90.0636 71.3147 90.6602C71.7876 91.0858 72.3897 91.9041 72.8783 92.1484" stroke="#232119" stroke-width="5" stroke-linecap="round"/>
<path d="M76.4386 92.8265C75.624 92.736 74.7093 90.9104 75.6286 92.6569C75.7831 92.9505 76.0259 93.1347 76.1843 93.4199C76.4109 93.8277 76.0851 92.9041 75.93 92.8265" stroke="#232119" stroke-width="5" stroke-linecap="round"/>
<path d="M76.7781 93.8436C76.8054 94.0623 77.161 94.3332 77.2867 94.5217" stroke="#232119" stroke-width="5" stroke-linecap="round"/>
<path d="M71.7481 83.9069C71.8383 84.0475 71.9273 84.1888 72.0152 84.3308C72.0334 84.3437 72.0512 84.3533 72.0683 84.359C72.3961 84.4683 71.7437 83.7489 71.5785 83.4454C71.0416 82.4586 70.5754 81.4543 70.2034 80.3936C69.9518 79.6762 69.597 78.895 69.6571 78.1143C69.7034 77.5121 71.3016 78.7617 71.4357 78.8665L71.4373 78.8678C71.8069 79.1568 72.1033 79.4752 72.3715 79.8074C72.1606 79.2286 71.9933 78.6588 71.7669 78.0766C71.5972 77.6402 71.3452 77.2525 71.2206 76.7956C71.152 76.544 71.8488 77.7164 72.137 78.2304C72.0642 78.069 72.0013 77.925 71.9553 77.8129C71.2275 76.0369 70.6372 73.9314 70.5048 72.0108C70.4897 71.7915 70.3633 71.3743 70.2456 71.0276C69.888 70.0926 70.0556 70.4683 70.2456 71.0276C70.2618 71.07 70.2791 71.1152 70.2976 71.1631C70.644 72.0639 70.9729 72.9661 71.2395 73.8946C71.3098 74.1395 71.5205 75.8926 71.8234 76.061C72.2108 76.2762 71.7463 75.1757 71.6539 74.7423C71.3822 73.4683 70.9431 72.2425 70.5801 70.9936C70.4635 70.5923 70.3176 69.9896 70.1639 69.3343C70.1631 69.4859 70.1519 69.6371 70.128 69.788C69.9299 71.0427 69.1485 67.3755 69.1485 66.1052C69.1485 65.8882 69.1641 65.7799 69.1924 65.7594C69.0658 65.3178 68.9789 64.877 68.9789 64.438C68.9789 64.1172 69.128 64.5512 69.2551 64.9747C69.2267 64.8241 69.1937 64.6443 69.1673 64.5511C68.8684 63.4965 68.5411 62.453 68.2563 61.3956C68.2685 61.5376 68.2801 61.679 68.2914 61.8196C68.3043 61.982 68.1233 61.5386 68.0653 61.3863C67.4383 59.7404 66.7671 58.1115 66.1062 56.4791C65.5189 55.0286 64.7772 53.482 64.3178 51.902C64.083 51.0946 63.9219 50.2785 63.8927 49.462C63.885 49.2458 63.8239 47.9297 63.9304 48.878C64.0444 49.8928 64.2162 50.8925 64.3178 51.902C64.7772 53.482 65.5189 55.0286 66.1062 56.4791C66.7671 58.1115 67.4383 59.7404 68.0653 61.3863C68.1233 61.5386 68.3043 61.982 68.2914 61.8196C68.2801 61.679 68.2685 61.5376 68.2563 61.3956C68.1797 61.1111 68.1061 60.8256 68.037 60.5386C67.8385 59.7137 67.6359 58.8678 67.6226 58.0144C67.6174 57.678 67.6982 57.5591 67.7922 57.9955C68.0284 59.0935 68.1593 60.2639 68.2563 61.3956C68.5411 62.453 68.8684 63.4965 69.1673 64.5511C69.1937 64.6443 69.2267 64.8241 69.2551 64.9747C69.277 65.0477 69.2983 65.1204 69.318 65.1889C69.318 65.1867 69.318 65.1845 69.318 65.1821C69.318 63.6774 68.9978 62.1854 68.9978 60.6893C68.9978 60.1018 69.1695 60.9322 69.1861 61.0284C69.3974 62.2491 69.9524 63.3716 70.1657 64.5982C70.2913 65.3203 71.2376 68.5765 70.8062 68.8461C70.8047 68.847 69.5021 65.7702 69.431 65.5872C69.4255 65.5729 69.3791 65.4012 69.318 65.1889C69.3169 65.2959 69.2894 65.1566 69.2551 64.9747C69.128 64.5512 68.9789 64.1172 68.9789 64.438C68.9789 64.877 69.0658 65.3178 69.1924 65.7594C69.265 65.7069 69.4209 66.2333 69.6091 66.9861C69.8942 67.7728 70.1676 68.5579 70.1639 69.3343C70.3176 69.9896 70.4635 70.5923 70.5801 70.9936C70.9431 72.2425 71.3822 73.4683 71.6539 74.7423C71.7463 75.1757 72.2108 76.2762 71.8234 76.061C71.5205 75.8926 71.3098 74.1395 71.2395 73.8946C70.9729 72.9661 70.644 72.0639 70.2976 71.1631C70.2791 71.1152 70.2618 71.07 70.2456 71.0276C70.3633 71.3743 70.4897 71.7915 70.5048 72.0108C70.6372 73.9314 71.2275 76.0369 71.9553 77.8129C72.0013 77.925 72.0642 78.069 72.137 78.2304C72.1822 78.3111 72.2173 78.3755 72.2379 78.4157C72.5045 78.937 72.8206 79.4629 73.0385 80.0075C73.2964 80.6524 72.5542 79.1554 72.137 78.2304C71.8488 77.7164 71.152 76.544 71.2206 76.7956C71.3452 77.2525 71.5972 77.6402 71.7669 78.0766C71.9933 78.6588 72.1606 79.2286 72.3715 79.8074C72.802 80.3406 73.1599 80.9092 73.6319 81.4486C73.8241 81.6682 73.4884 81.6579 73.3493 81.5616C72.9424 81.2799 72.7197 80.6839 72.5393 80.2429C72.4796 80.097 72.4242 79.9519 72.3715 79.8074C72.1033 79.4752 71.8069 79.1568 71.4373 78.8678L71.4357 78.8665C71.3016 78.7617 69.7034 77.5121 69.6571 78.1143C69.597 78.895 69.9518 79.6762 70.2034 80.3936C70.5754 81.4543 71.0416 82.4586 71.5785 83.4454C71.7437 83.7489 72.3961 84.4683 72.0683 84.359C72.0512 84.3533 72.0334 84.3437 72.0152 84.3308C71.8591 84.2198 71.6698 83.861 71.5218 83.5503C70.6118 82.1005 69.8017 80.6191 69.0034 79.129C68.9984 79.1204 68.9934 79.1119 68.9883 79.1033C68.3718 78.0464 66.6516 74.803 67.2459 75.8726C67.8481 76.9566 68.4226 78.0451 69.0034 79.129C69.7693 80.4413 70.558 81.7402 71.296 83.0686C71.3333 83.1357 71.4172 83.331 71.5218 83.5503C71.5965 83.6694 71.6719 83.7882 71.7481 83.9069Z" fill="#232119"/>
<path d="M76.6082 92.9961C74.9482 89.9989 73.6011 86.7942 71.7481 83.9069C70.0706 81.2932 68.744 78.5693 67.2459 75.8726C66.6516 74.803 68.3718 78.0464 68.9884 79.1033C69.759 80.4243 70.5532 81.7315 71.296 83.0686C71.3922 83.2418 71.7998 84.2695 72.0683 84.359C72.3961 84.4683 71.7437 83.7489 71.5785 83.4454C71.0416 82.4586 70.5754 81.4543 70.2034 80.3936C69.9518 79.6762 69.597 78.895 69.6571 78.1143C69.7036 77.5096 71.3149 78.7721 71.4373 78.8678C72.4002 79.6207 72.8658 80.5731 73.6319 81.4486C73.8241 81.6682 73.4884 81.6579 73.3493 81.5616C72.9424 81.2799 72.7197 80.6839 72.5393 80.2429C72.2404 79.5124 72.0499 78.8042 71.7669 78.0766C71.5972 77.6402 71.3452 77.2525 71.2206 76.7956C71.1412 76.5045 72.0864 78.1194 72.2379 78.4157C72.5045 78.937 72.8206 79.4629 73.0385 80.0075C73.3414 80.7649 72.2647 78.5677 71.9553 77.8129C71.2275 76.0369 70.6372 73.9314 70.5048 72.0108C70.4642 71.4218 69.621 69.4041 70.2976 71.1631C70.644 72.0639 70.9729 72.9661 71.2395 73.8946C71.3098 74.1395 71.5205 75.8926 71.8234 76.061C72.2108 76.2762 71.7463 75.1757 71.6539 74.7423C71.3822 73.4683 70.9431 72.2425 70.5801 70.9936C70.1063 69.3631 69.1485 64.4073 69.1485 66.1052C69.1485 67.3755 69.9299 71.0427 70.128 69.788C70.4058 68.0288 68.9789 66.2173 68.9789 64.438C68.9789 63.8905 69.4133 65.5416 69.431 65.5872C69.5021 65.7702 70.8047 68.847 70.8062 68.8461C71.2376 68.5765 70.2913 65.3203 70.1657 64.5982C69.9524 63.3716 69.3974 62.2491 69.1861 61.0284C69.1695 60.9322 68.9978 60.1018 68.9978 60.6893C68.9978 62.1854 69.318 63.6774 69.318 65.1821C69.318 65.3984 69.2263 64.7591 69.1673 64.5511C68.7879 63.2127 68.363 61.8924 68.037 60.5386C67.8385 59.7137 67.6359 58.8678 67.6226 58.0144C67.6174 57.678 67.6982 57.5591 67.7922 57.9955C68.0581 59.2313 68.1905 60.5587 68.2914 61.8196C68.3043 61.982 68.1233 61.5386 68.0653 61.3863C67.4383 59.7404 66.7671 58.1115 66.1062 56.4791C65.2187 54.2874 63.979 51.8763 63.8927 49.462C63.885 49.2458 63.8239 47.9297 63.9304 48.878C64.1011 50.3973 64.4014 51.883 64.4014 53.418C64.4014 53.4793 64.4605 53.9521 64.3637 53.6252C64.0034 52.4092 63.5869 51.208 63.1769 50.0083C61.8695 46.1829 60.5152 42.372 59.1833 38.5549C58.8278 37.5363 58.1891 36.4449 58.1284 35.3525C58.0832 34.54 57.7025 33.3569 57.5444 32.4986C57.3862 31.64 57.3244 30.8233 57.1488 29.9649C56.7606 28.0671 56.2076 26.1649 55.5853 24.3324C55.1082 22.9276 54.5897 21.5878 53.9275 20.2635C53.5567 19.5218 53.0796 17.7391 52.364 17.3813" stroke="#232119" stroke-width="5" stroke-linecap="round"/>
<path d="M50.331 7.03937C50.331 7.87933 49.9919 8.60763 49.9919 9.41293C49.9919 10.2319 50.0716 10.9771 50.1615 11.7865" stroke="#232119" stroke-width="5" stroke-linecap="round"/>
<path d="M53.0437 12.295C53.0437 14.1909 53.7219 15.9987 53.7219 17.8899" stroke="#232119" stroke-width="5" stroke-linecap="round"/>
<path d="M52.5347 27.384C52.4138 28.2302 52.2057 29.1096 51.8754 29.8988C51.354 31.1443 50.0273 27.4106 49.9633 27.2898C48.6878 24.8834 47.4568 21.9984 45.6777 19.9054C45.3803 19.5555 45.5487 20.8234 45.593 21.2805C45.7306 22.7032 45.8385 24.1279 45.8849 25.5567C45.897 25.9264 46.194 28.3699 45.6777 28.6649C45.4912 28.7715 45.5487 28.2542 45.5082 28.0433C45.3759 27.354 45.2237 26.6685 45.0843 25.9806C45.0783 25.9506 44.7477 24.2815 44.9054 24.5771C45.0976 24.9375 45.1789 25.2954 45.2445 25.6886" stroke="#232119" stroke-width="5" stroke-linecap="round"/>
<path d="M41.5129 31.8607C41.228 32.3144 40.9482 32.7715 40.6748 33.2329C40.31 33.8485 40.0039 34.2165 39.4786 34.6834C39.2116 34.9208 37.9976 36.0385 38.6309 35.0884C38.9956 34.5415 39.2376 33.8836 39.78 33.4872C40.2997 33.1075 40.731 32.5387 41.0045 31.9614C41.3755 31.1782 41.174 30.094 41.174 29.2487C41.174 29.1369 41.331 28.3878 41.4754 28.8531C41.7217 29.6468 41.6421 30.8819 41.5129 31.8607C41.4801 32.1092 41.4441 32.3413 41.4095 32.5453C41.157 34.0319 40.1542 35.5098 39.5634 36.8969C38.5656 39.2395 37.2923 41.367 35.791 43.4019C36.1115 45.2739 35.9732 47.321 35.4453 49.2031C35.5566 49.8405 35.6556 50.4786 35.7111 51.1194C35.732 51.3619 35.9035 52.2887 35.6734 52.4946C35.4044 52.7352 34.793 51.2472 34.7503 51.1382C34.748 51.1322 34.7457 51.1263 34.7434 51.1203C34.6849 51.2472 34.6244 51.3725 34.562 51.4962C32.9735 54.6425 32.2707 58.2514 31.6019 61.8145C31.6213 61.8292 31.641 61.8433 31.6609 61.8569C32.1596 62.1969 32.3579 62.0318 32.3579 62.6858C32.3579 63.6033 32.2002 64.3316 32.0189 65.2289C31.624 67.1824 30.4257 68.6835 29.796 70.5223C29.6341 70.9951 29.5915 71.796 29.6095 72.6259C29.9848 73.4078 29.9845 74.4485 29.9844 75.2742L29.9844 75.3259C29.9844 76.4286 29.6493 74.4569 29.6095 72.6259C29.5498 72.5015 29.4806 72.3836 29.4004 72.2742C29.3231 72.1688 29.2307 72.203 29.1373 72.3173C29.061 72.6104 28.9853 72.9037 28.9106 73.1973C28.8498 73.4363 28.691 74.1256 28.6375 73.8848C28.5864 73.6549 28.8664 72.6489 29.1373 72.3173C29.5854 70.5972 30.0574 68.883 30.493 67.1598C30.929 65.4348 31.261 63.6306 31.6019 61.8145C32.2707 58.2514 32.9735 54.6425 34.562 51.4962C34.6244 51.3725 34.6849 51.2472 34.7434 51.1203C34.3564 50.1148 34.4981 49.0786 34.1475 48.0771C33.8513 47.2308 33.723 46.2435 33.7143 45.355C33.7025 44.1673 33.7468 43.9209 34.562 43.151C34.9992 42.7381 35.5821 42.3071 35.7487 43.1699C35.7636 43.2469 35.7777 43.3242 35.791 43.4019C37.2923 41.367 38.5656 39.2395 39.5634 36.8969C40.1542 35.5098 41.157 34.0319 41.4095 32.5453C41.4441 32.3413 41.4801 32.1092 41.5129 31.8607Z" fill="#232119"/>
<path d="M45.9211 18.2286C45.2869 18.4823 44.8691 20.0181 44.5648 20.5928C43.9981 21.6632 43.7171 22.4891 43.7171 23.7198C43.7171 24.917 43.963 26.3916 43.5476 27.5157C43.1839 28.4996 43.0228 29.5344 42.4361 30.4261C41.8291 31.3488 41.2385 32.2817 40.6748 33.2329C40.31 33.8485 40.0039 34.2165 39.4786 34.6834C39.2116 34.9208 37.9976 36.0385 38.6309 35.0884C38.9956 34.5415 39.2376 33.8836 39.78 33.4872C40.2997 33.1075 40.731 32.5387 41.0045 31.9614C41.3755 31.1782 41.174 30.094 41.174 29.2487C41.174 29.1369 41.331 28.3878 41.4754 28.8531C41.7843 29.8484 41.5806 31.5377 41.4095 32.5453C41.157 34.0319 40.1542 35.5098 39.5634 36.8969C38.4257 39.5681 36.9297 41.9595 35.1459 44.253C34.6957 44.8319 34.889 45.7162 34.9764 46.41C35.1744 47.9816 35.5746 49.5427 35.7111 51.1194C35.732 51.3619 35.9035 52.2887 35.6734 52.4946C35.4044 52.7352 34.793 51.2472 34.7503 51.1382C34.3547 50.1271 34.5002 49.0846 34.1475 48.0771C33.8513 47.2308 33.723 46.2435 33.7143 45.355C33.7025 44.1673 33.7468 43.9209 34.562 43.151C34.9992 42.7381 35.5821 42.3071 35.7487 43.1699C36.2754 45.8962 35.8066 49.0307 34.562 51.4962C32.1639 56.2462 31.7844 62.0504 30.493 67.1598C29.9832 69.1767 29.4235 71.1811 28.9106 73.1973C28.8498 73.4363 28.691 74.1256 28.6375 73.8848C28.5687 73.5756 29.0988 71.863 29.4004 72.2742C29.9954 73.0856 29.9844 74.3624 29.9844 75.3259C29.9844 76.9284 29.2768 72.0383 29.796 70.5223C30.4257 68.6835 31.624 67.1825 32.0189 65.2289C32.2002 64.3316 32.3579 63.6033 32.3579 62.6858C32.3579 62.0318 32.1596 62.1969 31.6609 61.8569C31.0303 61.4269 30.6665 60.4518 30.0597 60.105C29.6409 59.8657 29.4396 59.6177 29.1743 59.182C28.9825 58.8667 28.289 56.7868 28.289 57.7126C28.289 61.0567 28.6281 64.3764 28.6281 67.7343C28.6281 70.2364 28.6255 73.0861 28.0818 75.5332C27.8588 76.5363 27.7804 77.6273 27.7804 78.6602C27.7804 79.7051 27.2648 80.6957 26.8573 81.6272C26.3591 82.766 26.4158 83.9118 26.0755 85.1027C25.7883 86.1079 25.0677 87.3273 25.0677 88.4182C25.0677 88.9541 24.7286 89.4685 24.7286 90.0288C24.7286 90.1592 24.3727 91.246 24.3048 91.3004C24.1579 91.4179 23.3723 93.4479 23.3723 93.3349" stroke="#232119" stroke-width="5" stroke-linecap="round"/>
<path d="M41.7676 75.7969C41.5564 76.1183 41.3534 76.3471 41.1228 76.5515C41.4298 77.5673 41.4907 78.6242 41.1365 79.4703C41.1191 79.5118 41.084 79.5634 41.0351 79.6209C40.6464 80.0793 39.3904 80.9206 39.3187 80.1672C39.2441 79.3843 39.9317 78.7389 40.7598 79.1312C41.0189 79.2539 41.089 79.4247 41.0351 79.6209C41.084 79.5634 41.1191 79.5118 41.1365 79.4703C41.4907 78.6242 41.4298 77.5673 41.1228 76.5515C41.0954 76.461 41.0661 76.3708 41.0349 76.2811C39.715 77.4341 38.0358 78.616 36.4459 78.9051C35.4143 79.0927 34.7498 78.8099 34.1289 77.9444C34.1005 77.9048 34.0733 77.8652 34.0472 77.8257C33.8818 77.8621 33.713 77.8567 33.5449 77.7937C32.4677 77.3897 32.383 75.2876 32.4711 74.3841C32.8012 71.0014 37.481 72.0285 39.2339 73.4987C39.9657 74.1124 40.6445 75.157 41.0349 76.2811C41.3485 76.0072 41.6418 75.7349 41.9089 75.4766C42.5199 74.8857 41.9527 75.5152 41.7676 75.7969Z" fill="#232119"/>
<path d="M25.407 91.6395C25.5238 90.3544 27.3313 89.9706 28.2892 89.5673C29.1179 89.2184 29.6633 88.5155 30.2765 87.8907C31.2337 86.9156 32.4224 86.1791 33.2812 85.1122C34.4469 83.6638 35.4188 81.9035 36.6908 80.5723C37.265 79.9713 38.0143 79.604 38.6311 79.0558C39.2936 78.4669 39.672 77.6044 40.4019 77.0967C40.993 76.6854 41.3653 76.4091 41.7676 75.7969C41.9527 75.5152 42.5199 74.8857 41.9089 75.4766C40.5179 76.822 38.4136 78.5474 36.4459 78.9051C35.4143 79.0927 34.7498 78.8099 34.1289 77.9444C32.8814 76.2055 33.8649 74.4407 35.5982 73.5364C36.6342 72.9959 35.8113 76.0097 35.6076 76.362C35.264 76.9565 34.3954 78.1126 33.5449 77.7937C32.4677 77.3897 32.383 75.2876 32.4711 74.3841C32.8012 71.0014 37.481 72.0285 39.2339 73.4987C40.6792 74.7108 41.9178 77.6038 41.1365 79.4703C40.9806 79.8428 39.3994 81.0152 39.3187 80.1672C39.2441 79.3843 39.9317 78.7389 40.7598 79.1312C41.9839 79.711 38.99 81.363 38.6311 81.7119C38.0205 82.3056 37.4346 83.3363 36.6814 83.6711C36.0178 83.966 35.9684 84.5156 35.5417 84.9897C35.1983 85.3712 37.229 84.5932 37.4443 84.5188C38.7212 84.0772 39.9662 83.5027 41.1742 82.8987C41.9774 82.4971 42.8 81.4389 43.3782 80.7512C43.9131 80.1151 44.4109 79.4171 44.9983 78.8298C46.3888 77.4392 48.0785 76.9013 49.8207 76.0795C50.2563 75.874 51.2694 75.5197 51.7234 75.8157C53.2663 76.822 54.1316 78.9623 55.3025 80.3462C55.8969 81.0487 54.6325 80.0622 54.5019 79.96C53.8245 79.4299 52.8185 79.5015 51.9871 79.3949C51.2254 79.2972 50.3081 79.2489 49.5664 79.0841C49.3358 79.0328 48.7523 78.9069 49.3121 79.0935" stroke="#232119" stroke-width="5" stroke-linecap="round"/>
<path d="M48.4661 79.0939C50.4728 79.4355 52.5753 79.2635 54.6072 79.2635C55.7093 79.2635 56.4808 79.6482 57.3575 80.3655C57.948 80.8486 58.8346 81.4558 59.2884 82.0515C59.53 82.3686 59.6154 82.5969 60.0325 82.7296C62.2316 83.4294 65.2097 82.1982 67.3038 81.6747C69.1819 81.2052 70.9122 81.308 71.693 79.4707C71.9252 78.9245 72.075 79.6302 72.164 79.9416C72.3202 80.4885 72.663 80.8198 72.9552 81.298C73.3129 81.8833 73.7827 82.2237 74.3209 82.6543C74.469 82.7727 74.5752 82.8841 74.5752 83.0781C74.5752 83.7069 73.8513 82.8029 73.7275 82.6543" stroke="#232119" stroke-width="5" stroke-linecap="round"/>
<path d="M66.9678 50.2675C67.7922 50.076 68.6098 49.8314 69.4181 49.4951C69.4114 49.4193 69.4059 49.3684 69.4031 49.349C69.3491 48.9712 69.2828 48.5646 69.1994 48.1466C68.5437 47.124 68.0167 46.0483 67.67 45.0257C67.6109 44.8512 67.5041 44.5328 67.4817 44.3193C67.4602 44.1159 67.6236 44.2235 67.6983 44.3193C68.4818 45.3237 68.9297 46.7949 69.1994 48.1466C69.4391 48.5206 69.6961 48.8875 69.9677 49.2421C70.9296 48.7737 72.8318 47.8558 73.1518 48.8404C73.306 49.3149 74.6084 53.1229 73.1801 52.25C72.005 51.5319 70.9 50.4593 69.9677 49.2421C69.7997 49.3238 69.6604 49.3919 69.5632 49.4337C69.5149 49.4545 69.4665 49.475 69.4181 49.4951C69.4811 50.2011 69.6545 53.0656 68.772 52.7586C68.4679 52.6528 67.9525 51.8706 67.8678 51.7414C67.5532 51.2613 67.2546 50.7684 66.9678 50.2675Z" fill="#232119"/>
<path d="M55.9247 65.7002C55.9247 63.1985 55.8445 60.6834 55.9435 58.1839C56.0422 55.6912 56.7899 52.2591 59.5509 51.5624C62.9347 50.7086 66.3247 50.8275 69.5632 49.4337C70.2171 49.1523 72.776 47.6838 73.1518 48.8404C73.306 49.3149 74.6084 53.1229 73.1801 52.25C70.7265 50.7506 68.5786 47.7059 67.67 45.0257C67.6109 44.8512 67.5041 44.5328 67.4817 44.3193C67.4602 44.1159 67.6236 44.2235 67.6983 44.3193C68.724 45.6343 69.1746 47.7493 69.4031 49.349C69.4317 49.549 69.7493 53.0985 68.772 52.7586C68.4679 52.6528 67.9525 51.8706 67.8678 51.7414C66.8793 50.2329 66.0482 48.5979 65.2494 46.9848C64.0072 44.4766 62.8587 41.9026 61.9528 39.2519C61.6159 38.2662 61.1804 37.1021 61.1804 36.0307C61.1804 34.8301 62.3331 38.1643 62.6309 39.3273C62.7382 39.746 62.8862 39.8666 62.8381 39.2896C62.6797 37.3883 62.1273 35.4281 61.6137 33.6006C61.0564 31.6176 59.9395 29.4622 59.8241 27.3841C59.8045 27.0317 59.3301 26.3922 59.1836 26.0655C58.5483 24.6482 58.055 27.5755 57.9968 27.9869C57.6475 30.4591 57.3591 33.1932 57.8273 35.6727C58.1354 37.3045 58.8242 38.8301 59.1459 40.4387" stroke="#232119" stroke-width="5" stroke-linecap="round"/>
<path d="M59.8247 38.4039C60.0576 37.7828 63.7591 39.5951 64.1009 39.7226C66.3631 40.5664 68.7205 41.2861 71.1556 41.2861C71.9172 41.2861 70.6002 41.2781 70.4586 41.2579C69.4654 41.116 68.5072 40.6385 67.5953 40.25C66.2778 39.6889 64.8217 39.1782 63.6299 38.3663C61.515 36.9253 65.568 37.4139 66.352 37.5657C67.6445 37.8158 68.6293 38.5325 69.8276 38.8749C71.8839 39.4624 74.0219 39.5299 76.1005 39.9675C78.2564 40.4213 80.6676 40.7775 82.8727 40.7775C85.3952 40.7775 88.0389 40.9706 90.5114 40.6174C91.0383 40.5421 91.4922 40.4384 92.0373 40.4384C92.8977 40.4384 93.2294 40.2975 92.1315 40.6927C89.6676 41.5797 87.5513 43.6857 85.0862 44.5074" stroke="#232119" stroke-width="5" stroke-linecap="round"/>
<path d="M84.2379 45.3555C82.7203 45.9804 81.6144 47.3995 79.9052 47.6913C78.8797 47.8664 77.4476 44.6336 77.0607 43.9803C76.5075 43.0462 76.4603 43.2406 75.516 43.1138C74.8075 43.0186 73.9011 42.667 74.1032 41.7574C74.4253 40.3078 78.7567 37.6144 79.8299 39.7606" stroke="#232119" stroke-width="5" stroke-linecap="round"/>
<path d="M73.6561 54.2281C73.3295 54.9633 72.8677 56.4181 72.3327 56.8461C72.2492 56.9129 71.9534 56.5184 71.8206 56.4011C71.8128 56.458 71.8058 56.5155 71.7995 56.5735C71.9417 57.1015 71.9971 57.6481 72.0219 58.193C72.0222 58.1993 71.9845 59.3519 71.8994 58.9371C71.7722 58.3166 71.7104 57.3977 71.7995 56.5735C71.7952 56.5576 71.7909 56.5418 71.7864 56.5259C71.735 56.3422 71.6539 56.2995 71.7864 56.3752C71.796 56.3807 71.8075 56.3895 71.8206 56.4011C71.8808 55.9616 71.9873 55.5584 72.1538 55.2543C72.4002 54.8044 73.0681 54.3782 73.6561 54.2281C73.7999 54.1914 73.9389 54.1712 74.0658 54.1712C74.3338 54.1712 74.4713 54.313 74.5744 54.5479C74.6535 54.728 74.5574 55.1753 74.7439 55.1131C74.9066 55.0588 74.8671 54.7916 74.9512 54.6421C75.2905 54.0389 75.757 53.5466 76.3263 53.1539C77.5455 52.3131 78.9476 51.8529 80.3011 51.289C81.4736 50.8004 82.7553 50.7135 83.4753 49.5936C83.8071 49.0774 84.0322 48.4502 84.3927 47.9526C84.4248 47.9083 84.458 47.865 84.4925 47.8228C85.0086 47.192 84.8036 47.6147 84.3927 47.9526C84.0322 48.4502 83.8071 49.0774 83.4753 49.5936C82.7553 50.7135 81.4736 50.8004 80.3011 51.289C78.9476 51.8529 77.5455 52.3131 76.3263 53.1539C75.757 53.5466 75.2905 54.0389 74.9512 54.6421C74.8671 54.7916 74.9066 55.0588 74.7439 55.1131C74.5574 55.1753 74.6535 54.728 74.5744 54.5479C74.4713 54.313 74.3338 54.1712 74.0658 54.1712C73.9389 54.1712 73.7999 54.1914 73.6561 54.2281Z" fill="#232119"/>
<path d="M78.4738 46.5419C76.3459 48.8144 75.1549 51.3051 73.7455 54.0393C73.4167 54.6773 72.9186 56.3774 72.3327 56.8461C72.241 56.9195 71.8931 56.4361 71.7864 56.3752C71.6539 56.2995 71.735 56.3422 71.7864 56.5259C71.9384 57.0686 71.9964 57.6317 72.0219 58.193C72.0222 58.1993 71.9845 59.3519 71.8994 58.9371C71.694 57.9358 71.6592 56.1573 72.1538 55.2543C72.4604 54.6943 73.4201 54.1712 74.0658 54.1712C74.3338 54.1712 74.4713 54.313 74.5744 54.5479C74.6535 54.728 74.5574 55.1753 74.7439 55.1131C74.9066 55.0588 74.8671 54.7916 74.9512 54.6421C75.2905 54.0389 75.757 53.5466 76.3263 53.1539C77.5455 52.3131 78.9476 51.8529 80.3011 51.289C81.4736 50.8004 82.7553 50.7135 83.4753 49.5936C83.8367 49.0313 84.0714 48.3375 84.4925 47.8228C85.07 47.117 84.7447 47.7301 84.2382 48.0677" stroke="#232119" stroke-width="5" stroke-linecap="round"/>
<path d="M84.2393 48.0677C82.8186 48.6203 81.5551 49.9211 80.3587 50.8557C79.2814 51.6974 78.6448 52.7019 77.7874 53.7379C77.1459 54.5131 76.3457 55.2832 75.6305 55.9985C75.3286 56.3004 74.8529 56.8838 74.406 56.8838" stroke="#232119" stroke-width="5" stroke-linecap="round"/>
<path d="M74.0652 54.3411C71.5535 55.7953 68.7395 57.0028 66.0027 57.958C63.2965 58.9024 60.1178 59.5396 57.2714 58.9093C53.2534 58.0196 49.3998 55.2557 45.9028 53.2203C42.238 51.0873 38.3969 49.1713 34.8073 46.919C34.2816 46.5891 35.0721 49.0826 35.1087 49.2361C35.417 50.5278 35.6946 51.8198 35.8811 53.1355C35.9826 53.8516 36.5592 55.7649 36.0035 55.3018C35.3938 54.7938 34.872 54.059 34.2987 53.5123C32.7057 51.993 31.0128 50.543 29.2125 49.2738C29.058 49.1648 25.7304 46.806 25.6993 47.7102C25.6626 48.7723 26.4328 49.8202 26.5658 50.8844C26.7367 52.2517 26.332 50.783 25.9912 50.3287C24.8712 48.8353 23.3764 47.493 21.9034 46.3539C21.013 45.6653 22.2034 47.1101 22.3461 47.3052C22.6279 47.6903 22.9306 48.0877 23.1938 48.4826C23.8674 49.493 21.5623 46.6708 20.6225 45.9018C20.5124 45.8117 18.1359 44.076 18.1359 44.2723C18.1359 44.4214 18.5812 45.2493 18.5503 45.2802C18.4577 45.3728 18.3657 45.094 18.2678 45.007C18.0829 44.8426 17.8854 44.6888 17.6838 44.5455C17.2362 44.2275 16.6696 44.1538 16.1768 43.9238C15.4367 43.5785 14.5224 43.3813 13.7467 43.1138C12.7942 42.7854 11.9247 41.9871 10.921 41.8046C10.3458 41.7 9.80861 41.117 9.2162 41.117C8.74455 41.117 7.8539 40.6478 7.43604 40.4388" stroke="#232119" stroke-width="5" stroke-linecap="round"/>
<path d="M8.79362 42.3036C8.11448 41.8596 6.9613 41.3516 6.5896 40.6082" stroke="#232119" stroke-width="5" stroke-linecap="round"/>
<path d="M25.998 45.391C26.2774 45.5054 26.5581 45.6255 26.8403 45.7511C27.5525 46.0682 28.375 46.4593 27.104 45.9018C26.7317 45.7385 26.3632 45.5678 25.998 45.391C23.9007 44.3754 21.9088 43.156 19.9079 41.9647C18.885 41.3556 17.8484 40.7721 16.8186 40.1751C16.5605 40.0255 15.8492 39.6559 16.1404 39.5911C16.9952 39.4012 18.0102 39.3246 18.8719 39.497C19.8431 39.6912 20.7628 40.1297 21.7352 40.3541C22.0877 40.4354 23.1448 40.5374 22.7901 40.6084C21.8937 40.7877 20.9521 40.8984 20.0398 40.938C19.9431 40.9422 18.7539 40.9475 19.4935 40.9475H19.5108C22.2753 40.9475 25.0375 40.9475 27.801 41.0322C27.8453 41.0336 28.0072 41.0378 28.2409 41.0451C28.6589 40.7127 29.1794 40.4562 29.7312 40.2617C29.2153 40.1309 28.7329 39.8922 28.4603 39.4593C28.3835 39.3374 28.4253 39.2517 28.5374 39.192C27.5732 39.2174 26.6088 39.2332 25.6441 39.2332C24.7722 39.2332 23.0269 39.4572 22.1591 38.9978C21.6781 38.7431 23.8576 38.7434 23.9564 38.7434L23.9581 38.7434C25.8838 38.7434 27.8237 38.6999 29.7413 38.913C30.5446 39.0022 31.0921 38.9024 31.9614 38.7439L31.9641 38.7434C34.1075 38.3527 36.2333 38.2348 38.4066 38.2348C38.9509 38.2348 38.9656 38.1667 38.4914 38.442C37.0295 39.2909 35.6112 40.1469 34.5072 41.4561C34.4613 41.5105 34.126 42.0551 33.8327 42.4401C33.6361 43.2088 32.9395 43.6285 32.1996 43.9144C30.8459 44.4374 30.7922 45.7949 30.3441 47.0321C29.5096 49.3357 28.5848 51.6145 27.5655 53.8419C27.2177 54.6019 27.2006 54.9801 26.3599 54.7367C25.0163 54.3478 23.1076 53.7901 22.3569 52.4762C21.9474 51.7597 21.3883 51.2325 20.7557 50.7148C19.8052 49.9372 18.8994 49.0916 18.1089 48.1529C17.23 47.1092 15.933 46.7493 14.9819 45.7982C14.7784 45.5947 14.7658 45.6061 14.8454 45.7184C15.0063 45.9455 15.5439 46.5849 15.6412 46.693C15.7422 46.8052 14.5885 45.5997 14.558 45.3555C14.5578 45.3539 14.5576 45.3523 14.5574 45.3507C14.5258 45.3085 14.4946 45.2662 14.4638 45.2236C13.914 44.4644 14.5152 45.0606 14.5574 45.3507C14.6505 45.475 14.7466 45.5975 14.8454 45.7184C14.7658 45.6061 14.7784 45.5947 14.9819 45.7982C15.933 46.7493 17.23 47.1092 18.1089 48.1529C18.8994 49.0916 19.8052 49.9372 20.7557 50.7148C21.3883 51.2325 21.9474 51.7597 22.3569 52.4762C23.1076 53.7901 25.0163 54.3478 26.3599 54.7367C27.2006 54.9801 27.2177 54.6019 27.5655 53.8419C28.5848 51.6145 29.5096 49.3357 30.3441 47.0321C30.7922 45.7949 30.8459 44.4374 32.1996 43.9144C32.9395 43.6285 33.6361 43.2088 33.8327 42.4401C33.5524 42.8079 33.3105 43.0299 33.3958 42.5393C33.4315 42.3341 33.9148 41.434 33.8856 42.0777C33.8797 42.2065 33.8616 42.3271 33.8327 42.4401C34.126 42.0551 34.4613 41.5105 34.5072 41.4561C35.6112 40.1469 37.0295 39.2909 38.4914 38.442C38.9656 38.1667 38.9509 38.2348 38.4066 38.2348C36.2333 38.2348 34.1075 38.3527 31.9641 38.7434L31.9614 38.7439C31.0921 38.9024 30.5446 39.0022 29.7413 38.913C27.8237 38.6999 25.8838 38.7434 23.9581 38.7434L23.9564 38.7434C23.8576 38.7434 21.6781 38.7431 22.1591 38.9978C23.0269 39.4572 24.7722 39.2332 25.6441 39.2332C26.6088 39.2332 27.5732 39.2174 28.5374 39.192C28.9107 38.9931 30.0647 39.0825 30.2216 39.0825C30.8344 39.0825 32.5099 39.052 30.7208 39.1202C29.9931 39.1479 29.2653 39.1727 28.5374 39.192C28.4253 39.2517 28.3835 39.3374 28.4603 39.4593C28.7329 39.8922 29.2153 40.1309 29.7312 40.2617C30.5075 39.9881 31.3459 39.8371 32.0489 39.7701C32.2354 39.7523 32.3658 39.8112 32.2279 40.0244C31.9604 40.4378 31.3155 40.4255 30.8904 40.4106C30.5365 40.3982 30.1241 40.3612 29.7312 40.2617C29.1794 40.4562 28.6589 40.7127 28.2409 41.0451C29.2776 41.0772 31.7278 41.1679 31.6062 41.3242C30.9725 42.1389 29.4619 42.3789 28.5168 42.4545C27.6462 42.5241 27.1649 42.1229 27.9328 41.3242C28.0275 41.2257 28.1307 41.1328 28.2409 41.0451C28.0072 41.0378 27.8453 41.0336 27.801 41.0322C25.0375 40.9475 22.2753 40.9475 19.5108 40.9475H19.4935C18.7539 40.9475 19.9431 40.9422 20.0398 40.938C20.9521 40.8984 21.8937 40.7877 22.7901 40.6084C23.1448 40.5374 22.0877 40.4354 21.7352 40.3541C20.7628 40.1297 19.8431 39.6912 18.8719 39.497C18.0102 39.3246 16.9952 39.4012 16.1404 39.5911C15.8492 39.6559 16.5605 40.0255 16.8186 40.1751C17.8484 40.7721 18.885 41.3556 19.9079 41.9647C21.9088 43.156 23.9007 44.3754 25.998 45.391Z" fill="#232119"/>
<path d="M14.8971 43.6601C19.1865 43.3237 22.8621 43.9798 26.8403 45.7511C27.5525 46.0682 28.375 46.4593 27.104 45.9018C24.5943 44.8011 22.2572 43.3635 19.908 41.9647C18.885 41.3556 17.8484 40.7721 16.8186 40.1751C16.5605 40.0255 15.8492 39.6559 16.1404 39.5911C16.9952 39.4012 18.0102 39.3246 18.8719 39.497C19.8431 39.6912 20.7628 40.1297 21.7352 40.3541C22.0877 40.4354 23.1448 40.5374 22.7901 40.6084C21.8937 40.7877 20.9521 40.8984 20.0398 40.938C19.9431 40.9422 18.7539 40.9475 19.4935 40.9475C22.2637 40.9475 25.0317 40.9473 27.801 41.0322C28.0417 41.0396 31.7552 41.1327 31.6062 41.3242C30.9725 42.1389 29.4619 42.3789 28.5168 42.4545C27.6462 42.5241 27.1649 42.1229 27.9328 41.3242C28.8915 40.3273 30.7142 39.8972 32.0489 39.7701C32.2354 39.7523 32.3658 39.8112 32.2279 40.0244C31.9604 40.4378 31.3155 40.4255 30.8904 40.4106C30.0717 40.3819 28.9405 40.222 28.4603 39.4593C28.1279 38.9313 30.0176 39.0825 30.2216 39.0825C30.8344 39.0825 32.5099 39.052 30.7208 39.1202C29.0292 39.1846 27.3371 39.2332 25.6441 39.2332C24.7722 39.2332 23.027 39.4572 22.1591 38.9978C21.675 38.7415 23.8856 38.7434 23.9581 38.7434C25.8838 38.7434 27.8237 38.6999 29.7413 38.913C30.5455 39.0023 31.0933 38.9022 31.9641 38.7434C34.1075 38.3527 36.2333 38.2348 38.4066 38.2348C38.9509 38.2348 38.9656 38.1667 38.4914 38.442C37.0295 39.2909 35.6112 40.1469 34.5072 41.4561C34.4174 41.5626 33.2212 43.5433 33.3958 42.5393C33.4315 42.3341 33.9148 41.434 33.8856 42.0777C33.8399 43.0826 33.0483 43.5865 32.1996 43.9144C30.8459 44.4374 30.7922 45.7949 30.3441 47.0321C29.5096 49.3357 28.5848 51.6145 27.5655 53.8419C27.2177 54.6019 27.2006 54.9801 26.3599 54.7367C25.0163 54.3478 23.1076 53.7901 22.3569 52.4762C21.9474 51.7597 21.3883 51.2325 20.7556 50.7148C19.8052 49.9372 18.8994 49.0916 18.1089 48.1529C17.23 47.1092 15.933 46.7493 14.9819 45.7982C14.3668 45.1831 15.4958 46.5315 15.6412 46.693C15.7422 46.8052 14.5885 45.5997 14.558 45.3555C14.522 45.0673 13.9109 44.4601 14.4638 45.2236C15.4551 46.5925 16.8262 47.735 18.0242 48.9158C19.6656 50.5338 21.3458 52.1433 22.9597 53.7571C26.9415 57.7389 32.4996 60.452 37.6155 62.479" stroke="#232119" stroke-width="5" stroke-linecap="round"/>
<path d="M27.4438 58.8196C27.4511 59.3596 27.4873 60.0733 27.6499 59.766C27.8611 59.3672 27.6967 59.0833 27.4438 58.8196Z" fill="#232119"/>
<path d="M41.8536 60.1051C40.1548 59.7997 38.8252 59.3851 37.2761 58.6169C35.6323 57.8018 33.9408 56.7897 32.1145 56.46C30.84 56.2299 29.5422 56.0291 28.2528 55.9043C27.6218 55.8432 27.6318 56.101 27.6123 56.6766C27.5932 57.2406 27.4427 57.7559 27.4427 58.3249C27.4427 58.6009 27.4205 60.1995 27.6499 59.766C28.0099 59.0862 27.2786 58.7402 26.8776 58.259C26.5507 57.8668 26.595 57.5386 26.595 57.0534" stroke="#232119" stroke-width="5" stroke-linecap="round"/>
<path d="M35.0712 43.8296C36.2668 42.773 37.2141 40.7708 37.2752 39.1202C37.3031 38.3657 35.7841 37.8752 35.1559 37.7356C34.3897 37.5653 33.304 37.5566 32.5187 37.5566C31.2186 37.5566 29.9075 37.3871 28.591 37.3871C25.1413 37.3871 21.9215 37.674 18.5505 38.3196C16.3408 38.7427 9.59437 39.0825 11.8442 39.0825" stroke="#232119" stroke-width="5" stroke-linecap="round"/>
<path d="M31.8018 67.0566C32.5109 68.7112 32.0218 70.8847 32.3523 72.6539C32.3664 72.7294 32.5217 73.5335 32.597 73.0363C32.7884 71.7728 32.8326 70.4761 33.7975 69.5112C33.9431 69.3655 34.633 68.7734 34.9063 69.0218C35.483 69.5461 35.8987 71.9768 35.6251 71.247C35.3616 70.5443 33.983 66.4113 35.3115 66.1161C35.6386 66.0434 35.3059 68.8122 34.7533 69.1136C33.7484 69.6617 32.8435 67.4433 33.0711 67.4695C33.5285 67.5223 33.5855 68.1954 33.3922 68.5095C33.0994 68.9854 32.4944 68.6958 32.9411 69.3659C33.0265 69.494 33.8941 70.785 33.9963 70.4441C34.2472 69.6079 34.5538 68.9845 35.1051 68.2954" stroke="#231F20" stroke-linecap="round"/>
<path d="M70.8913 52.3293C69.0194 53.1001 67.6496 55.2776 66.181 56.5808C65.4247 57.2519 64.2771 58.1956 63.1683 58.0948C61.8367 57.9738 60.6289 55.9033 59.972 55.0362C58.3326 52.8724 56.3162 50.4797 55.3381 47.9096C54.9182 46.8061 55.9583 47.5223 56.2098 47.879C56.9446 48.9206 57.0382 50.4226 56.9898 51.6564C56.9408 52.9047 55.913 49.2946 55.9805 48.0472C56.0409 46.9288 57.143 45.9972 58.2591 46.0285C59.4472 46.0618 60.3516 47.3572 60.8896 48.246C61.8074 49.7624 62.4813 51.5706 62.5718 53.3539C62.5812 53.5395 62.6293 54.5125 62.3577 54.6692C62.0216 54.8631 61.0881 53.7037 60.9813 53.5833C60.2006 52.7031 59.1205 51.383 59.0544 50.1271C59.0467 49.9802 59.2289 50.3649 59.2991 50.4941C59.937 51.6683 60.4779 52.8538 60.7213 54.1798C61.0281 55.8507 60.9864 57.5965 60.9813 59.2877C60.9779 60.4278 61.1237 61.8783 60.6449 62.9581C60.4273 63.4487 59.9667 63.6051 59.4979 63.3404C57.3862 62.1481 55.5863 60.0282 53.8088 58.4313C50.9672 55.8783 48.0601 53.4181 45.0305 51.0906C44.9952 51.0634 43.0157 49.2868 42.6754 49.3624C42.4534 49.4117 42.488 51.2306 42.4766 51.3352C42.3423 52.5654 41.9753 53.6902 41.1308 54.6233C40.7386 55.0566 39.9321 55.7766 39.265 55.7091C38.3547 55.617 37.7539 53.7658 37.491 53.1704C36.8406 51.6978 35.7271 49.6076 35.9311 47.9249C36.0586 46.8725 37.2819 46.6784 38.118 46.6096C40.5096 46.4129 43.4552 46.8467 44.4494 49.3471C44.7074 49.9962 44.7322 50.6938 44.74 51.3811C44.742 51.5672 44.7798 52.0632 44.6482 51.9317C43.7765 51.06 43.4095 47.889 44.4494 47.0532C45.9147 45.8754 48.9066 46.7627 49.5114 48.4907C50.1497 50.3144 48.724 52.9899 46.6975 53.2316C45.7319 53.3468 44.8833 52.021 44.4188 51.4117C42.8678 49.3773 41.4013 47.1264 40.3814 44.7745C39.0764 41.7652 39.9557 38.8795 40.1367 35.7668C40.2613 33.623 39.6081 31.8956 38.6686 30.0165C38.394 29.4674 38.3073 29.3436 38.9591 29.3436C39.5446 29.3436 39.9478 28.4302 40.3049 27.9672C40.942 27.1415 41.9334 26.3394 42.2625 25.3521" stroke="#231F20" stroke-width="6" stroke-linecap="round"/>
<path d="M42.1247 25.6274C42.9825 23.8164 44.0763 22.3402 45.3515 20.81C45.8466 20.2159 46.2104 19.6709 46.4526 18.9442C46.6303 18.4113 46.4999 17.7865 46.5291 17.2314C46.5829 16.2084 47.4322 15.2264 47.8749 14.341C48.5424 13.0061 49.161 11.5534 49.6336 10.1354C50.0187 8.98024 50.5206 8.22675 50.5206 6.97732C50.5206 6.47254 50.5206 6.90811 50.5206 7.18377C50.5206 8.3175 50.6709 9.42961 51.1018 10.4871C51.6541 11.8429 52.1351 13.247 52.7228 14.5857C53.0484 15.3272 53.5955 16.027 53.7934 16.8185C54.2347 18.584 54.3265 20.1757 55.4756 21.6664C56.8259 23.4182 58.1396 25.2761 59.3295 27.1414C59.9366 28.093 60.3366 29.3751 60.6141 30.46C60.9143 31.6333 59.7998 30.2161 59.6124 29.8789C57.7093 26.4532 56.851 22.4271 54.7263 19.1125C53.9778 17.9449 54.129 18.6028 54.4739 19.6248C55.3073 22.094 56.5526 24.2614 56.7755 26.9043C56.8171 27.3969 57.2346 29.5327 56.4009 28.3801C55.774 27.5136 55.2662 26.5669 54.6345 25.7038C54.1601 25.0558 54.1156 25.4561 53.8087 26.025C52.9148 27.6819 51.6119 29.0073 50.1612 30.1924C47.2803 32.5458 43.9935 34.4829 40.7483 36.2867C39.3846 37.0447 37.8398 37.9975 36.2674 38.2595C35.4607 38.394 34.8333 37.6067 34.3557 37.0667C34.3495 37.0596 33.7029 36.0964 33.6522 36.1108C33.3966 36.1839 33.0528 36.8402 32.8723 37.0208C32.8267 37.0664 31.7792 37.8976 32.0006 37.5713C32.5722 36.729 33.5749 36.2395 34.1875 35.4227C34.4283 35.1016 34.8507 34.7128 35.1968 34.5051C35.8063 34.1394 36.4484 34.0093 36.8944 33.404C37.0967 33.1295 37.3664 32.6539 37.6438 32.4558C37.8937 32.2772 37.7208 33.0663 37.7279 33.3734C37.768 35.1172 37.9282 36.8565 37.7049 38.596C37.3569 41.3075 36.7046 43.9784 36.3438 46.6937C35.8766 50.211 35.6298 53.8407 34.5392 57.2384C34.0581 58.7374 33.3771 60.5194 32.1994 61.6352C31.9639 61.8583 32.145 61.6688 32.2606 61.5358C32.7141 61.0138 33.1741 60.396 33.7058 59.9529C34.2054 59.5365 34.4494 61.0238 34.4934 61.2452C34.6818 62.1931 34.6987 65.1504 33.2393 63.5239C32.016 62.1605 30.9806 60.463 30.3642 58.7371C30.0219 57.7785 30.0453 56.7561 29.7066 55.8008C29.4584 55.1007 29.3875 55.0132 29.8366 55.7779C30.5908 57.0622 31.0549 58.4899 31.4653 59.9147C31.7287 60.8292 31.8248 61.8257 32.1382 62.721C32.336 63.2862 31.6943 61.6084 31.45 61.0617C31.3899 60.9271 30.9504 59.6886 30.9606 59.7006C31.5131 60.3478 32.0258 61.211 32.3523 61.9946C33.4988 64.7461 29.4496 56.7629 28.399 53.9733C28.2709 53.6331 28.2361 53.261 28.6972 53.4916C29.5923 53.9391 30.0727 55.3073 30.3871 56.1679C30.7093 57.0495 30.9558 58.007 30.9759 58.9512C30.9867 59.4598 30.8386 57.943 30.7848 57.4372C30.6807 56.4588 32.1266 58.6785 32.1688 58.7524C32.926 60.0789 33.1287 61.4378 32.8111 62.9198C32.6456 63.692 32.4412 64.5286 32.077 65.2367C31.8733 65.633 32.4289 66.057 32.6429 66.3378C33.8938 67.9797 33.6872 69.9052 33.0482 71.7822C33.014 71.8825 32.6276 73.1701 32.6276 72.5622C32.6276 71.6324 31.971 73.2861 31.9088 73.4186C31.2948 74.7271 30.709 76.3277 29.676 77.3795C28.9752 78.0931 28.0371 78.697 27.535 79.5817C27.2793 80.0321 26.7767 80.8468 26.2962 81.0652C24.9905 81.6587 26.0898 78.6846 26.1892 78.4501C26.6848 77.2802 26.9662 76.1146 26.9844 74.8409C26.9984 73.8598 27.2597 72.9358 27.2597 71.9275C27.2597 70.5983 27.4511 69.2556 27.5426 67.9283C27.6109 66.9381 27.7518 65.9503 27.8408 64.9615C27.9406 63.8529 27.8563 62.7201 28.0549 61.6275C28.1669 61.0119 28.2768 59.572 28.6667 59.1042C28.8086 58.9338 32.0225 63.6186 32.2606 64.0592C33.5328 66.4137 33.8712 69.1935 34.6081 71.744C34.6931 72.0382 34.8018 72.4593 35.1663 72.134C36.0173 71.3741 36.6003 70.1726 37.292 69.2741C38.6862 67.4633 40.1377 65.7137 42.0635 64.4415C43.936 63.2045 46.0522 62.2454 48.1808 61.5434C48.7674 61.35 49.2665 61.0438 49.4807 61.7499C50.0171 63.5185 50.1767 65.4104 50.2148 67.2478C50.2458 68.7457 50.2129 70.2659 50.0007 71.7516C49.9912 71.818 49.9298 72.0041 49.9701 71.9504C50.0901 71.7904 50.235 71.2206 50.2683 71.1093C51.4301 67.2216 51.1173 62.9241 53.3652 59.3794C53.6522 58.9268 53.6774 59.1506 53.8087 59.5477C54.4714 61.5515 55.2562 63.5186 56.0109 65.4891C56.6023 67.0334 57.2424 68.5492 57.6778 70.1458C57.9178 71.0258 57.9378 69.5956 57.9378 69.4959C57.9378 67.5348 57.6935 65.5997 57.479 63.6539C57.2622 61.6865 56.6957 59.004 57.5096 57.0855C57.8334 56.3222 58.2499 57.2075 58.3813 57.5443C58.9108 58.901 59.1779 60.3532 59.4366 61.7805C59.5796 62.5699 59.6918 63.0325 60.1018 61.964C60.8617 59.9837 61.0602 57.7773 61.4706 55.7091C62.0459 52.8093 63.0303 49.6144 66.2879 48.8118C66.9519 48.6483 67.8531 49.6124 68.2454 50.0047C68.863 50.6222 69.356 51.36 69.5912 52.2069C69.9308 53.4295 68.7885 51.633 68.7195 51.2129C68.4022 49.2799 70.1239 47.8403 71.1053 46.3955C71.4593 45.8743 70.6571 46.4143 70.4706 46.4873C69.9479 46.6918 68.5773 47.3283 68.1843 46.6249C67.0563 44.6065 66.3747 41.8821 66.0891 39.5977C66.0098 38.9637 64.878 38.7893 64.3686 38.4278C63.5699 37.8609 63.0532 36.9778 62.304 36.3785C61.8107 35.9838 63.5381 36.6581 64.1392 36.8526C65.5287 37.3021 66.768 38.1279 68.1919 38.5578C69.3575 38.9096 70.536 38.8407 71.7399 38.8407C73.2871 38.8407 74.8343 38.8407 76.3814 38.8407C77.3237 38.8407 78.3727 38.7138 79.3024 38.9171C79.5607 38.9737 80.2903 39.0792 80.4953 39.2842C80.6904 39.4793 79.2691 39.4069 79.2107 39.3912C77.9744 39.0604 76.7065 38.6501 75.4791 38.2595C73.3337 37.5769 71.0642 37.3254 68.8572 36.9137C66.6441 36.5009 64.3958 36.3022 62.197 35.8203C61.569 35.6826 59.7495 35.1397 60.3924 35.1397C61.5365 35.1397 62.9815 36.0486 64.0322 36.432C66.9487 37.4961 70.0108 38.4918 73.0551 39.1007C75.7646 39.6426 78.4787 40.0202 81.2141 40.3241C82.7669 40.4967 84.3404 40.3375 85.8938 40.5229C87.0153 40.6568 88.0592 40.7676 89.1971 40.7676C89.7375 40.7676 90.2778 40.7676 90.8182 40.7676C90.9972 40.7676 89.8915 41.2518 89.6406 41.2876C87.8024 41.5502 85.9446 41.2211 84.1656 40.8976C83.2418 40.7297 82.0301 39.9746 81.2141 39.5212C80.9383 39.368 79.1029 38.703 80.0365 38.703C82.6598 38.703 85.1888 38.7269 87.7672 39.1236C88.4604 39.2302 89.1559 39.4136 89.8547 39.5289C90.9318 39.7065 92.1117 39.51 93.1581 39.8347C93.764 40.0228 94.26 39.8042 94.8403 39.8042C94.9861 39.8042 93.6553 41.1753 93.4639 41.3182C91.9287 42.4642 90.2212 43.5382 88.5242 44.4074C86.8686 45.2554 85.0877 45.8312 83.4086 46.6326C81.552 47.5187 79.7614 48.3651 77.7425 48.8271C76.4937 49.1129 74.9453 49.5765 73.6439 49.5765" stroke="#231F20" stroke-width="6" stroke-linecap="round"/>
<path d="M84.3798 43.9333C84.0264 46.7606 82.3909 49.1882 79.7919 50.4788C77.7969 51.4694 75.44 51.7481 73.2387 51.7481C72.7065 51.7481 71.5048 51.8865 71.4112 51.1211C71.1471 48.9599 72.8745 47.0958 74.0263 45.432C74.0659 45.3749 74.4862 44.7629 74.4546 44.8815C74.2296 45.7251 73.5757 46.287 73.017 46.9155C72.3199 47.6997 74.2897 46.7875 74.3628 46.7625C76.1436 46.1543 77.9673 45.7419 79.7842 45.2638C80.1983 45.1548 81.2068 44.5138 81.0153 44.8968C80.8194 45.2887 80.3572 45.6777 80.1207 46.0743C79.8628 46.5066 79.1345 47.8295 79.379 47.3896C79.7554 46.7119 80.1934 46.0622 80.5871 45.3938C80.9352 44.8029 81.3021 44.2429 81.7035 43.6886C81.978 43.3095 81.5766 44.9759 81.5506 45.0344C81.3249 45.5423 80.1893 46.7433 80.6559 46.4414C81.432 45.9392 82.3062 45.6204 83.1717 45.3097C83.8622 45.0618 84.6482 44.6387 85.3739 44.5068C85.4292 44.4967 84.9962 45.5247 84.9763 45.5697C84.5222 46.595 83.9627 47.5884 83.6611 48.6742C83.5024 49.2453 83.6191 49.259 83.9669 48.8577C84.4883 48.2561 84.9761 47.4253 85.6874 47.0302C86.2243 46.7319 86.1331 47.4033 86.4597 47.4966C86.7711 47.5856 86.9742 47.319 87.1326 47.099C87.1739 47.0417 87.6156 46.4437 87.5608 46.4337C87.0971 46.3494 86.529 46.8753 86.215 47.1296C85.3725 47.812 84.6549 48.598 83.8905 49.3624C81.409 51.8438 78.7932 53.4684 75.4945 54.6691C73.566 55.3711 71.7467 56.1321 69.7137 56.4278C69.4702 56.4633 69.2549 56.5224 69.2549 56.2061C69.2549 55.3308 70.0101 54.8861 70.7077 54.5315C71.8733 53.939 73.0852 53.4345 74.2557 52.8492C74.4617 52.7463 75.0621 52.2671 75.0204 52.7881C74.9245 53.9865 74.0299 55.1082 73.4452 56.1067C72.9418 56.9663 72.4199 58.493 71.6635 59.1653C70.6353 60.0793 73.0329 56.7513 73.9652 55.7396C74.4162 55.2502 74.8971 54.7835 75.3721 54.3174C75.4596 54.2316 75.8018 54.0332 75.8386 53.9045C76.1534 52.8024 78.8204 52.1251 78.2931 53.9809C78.0594 54.8037 77.6355 55.5865 77.6355 56.4584C77.6355 56.721 77.649 55.8636 77.6355 56.2137C77.6008 57.1171 76.5926 58.0129 75.9839 58.5995C75.3292 59.2303 74.178 59.3374 73.3764 59.7618C72.4565 60.2487 72.1223 61.1021 71.5794 61.941C71.4566 62.1308 71.0764 62.6705 70.8148 62.698C70.786 62.7011 70.6341 60.6838 70.616 60.5264C70.5776 60.1931 70.662 59.2077 70.4707 58.9206C70.1136 58.385 70.3437 60.2038 70.3407 60.8476C70.3303 63.0604 70.4783 69.6977 70.4783 67.4848C70.4783 66.3853 69.3311 63.3212 69.2625 64.4185C69.1979 65.453 69.4856 66.4912 69.4231 67.5307C69.371 68.3966 69.0742 68.2619 68.6049 67.6836C67.1828 65.9314 65.9739 64.0049 64.6516 62.1781C64.575 62.0722 63.0913 59.6547 62.8394 59.6547C62.722 59.6547 63.5172 61.6387 63.5352 61.6887C64.2277 63.6057 64.4127 65.5966 64.4222 67.6225C64.4231 67.8048 64.5559 69.4099 64.2769 69.5494C64.1631 69.6063 63.4088 66.6723 63.3976 66.6284C63.3478 66.4337 62.479 62.6194 62.7017 62.6751C62.9392 62.7345 63.3454 63.4621 63.3593 63.4856C64.0168 64.5966 64.466 65.814 64.8963 67.026C65.7332 69.3833 66.4225 71.7881 67.2132 74.1603C67.4155 74.7672 67.4808 74.9463 67.6873 75.4832C67.7409 75.6225 67.8435 76.0214 67.8938 75.8808C68.2676 74.834 67.9213 73.2509 67.7791 72.2028C67.7036 71.6467 66.8893 68.6941 67.9779 70.5511C68.9167 72.1526 69.5001 73.9088 70.2336 75.6055C70.7174 76.7246 71.3079 77.7959 71.6941 78.9547C71.8384 79.3874 71.9495 78.8593 71.9618 78.6794C72.0612 77.2166 71.6723 75.7409 71.3883 74.3209C71.0421 72.59 70.9949 71.0203 71.2353 69.2894C71.3052 68.7861 71.4418 68.2504 71.4418 67.7448C71.4418 67.3873 71.1846 67.1258 71.1665 66.7813C71.1429 66.3326 71.1437 65.9235 71.0595 65.4814C70.996 65.1484 70.8038 63.6383 71.1665 63.4474C71.4878 63.2783 72.6013 63.1485 72.7417 63.5698C73.0963 64.6335 72.8182 66.1442 72.8182 67.2478C72.8182 68.4687 72.8182 69.6896 72.8182 70.9105C72.8182 72.2717 72.9383 73.5432 73.1623 74.8867C73.3616 76.0824 73.8841 76.8786 74.4698 77.8995C75.8086 80.2328 75.5494 82.9115 76.5268 85.3549C76.9344 86.3738 77.1206 87.6526 77.4214 88.7271C77.6523 89.5518 78.1674 90.4691 78.1861 91.3116C78.1955 91.7342 78.8801 96.1013 77.7732 95.5478" stroke="#231F20" stroke-width="6" stroke-linecap="round"/>
<path d="M36.7568 87.2895C35.8677 88.1305 34.8746 88.6968 33.7288 89.0788" stroke="#231F20" stroke-width="6" stroke-linecap="round"/>
<path d="M63.8717 77.7925C64.2542 79.9596 65.3517 81.7407 66.7316 83.4051C67.4016 84.2133 67.991 85.0774 68.735 85.8214C69.3249 86.4113 69.1312 85.9464 68.7808 85.4543C67.3007 83.3754 65.5976 81.4561 63.8717 79.5818C63.2855 78.9451 61.6794 76.9025 62.2201 77.5783C64.806 80.8107 73.1301 90.0177 70.2031 87.0907C65.5704 82.458 61.8365 77.1827 57.785 72.0728C57.763 72.045 56.7945 70.9637 57.1427 71.4764C58.0198 72.7676 58.8822 74.0687 59.7579 75.3608C60.882 77.0197 61.9817 79.0418 63.4741 80.4229C65.0094 81.8436 60.4804 77.4836 58.8097 76.2249C56.5338 74.5102 54.0551 72.5289 51.469 71.2776C50.9015 71.003 51.6134 73.6749 51.6601 73.8315C51.9203 74.7039 52.271 75.536 52.6312 76.3702C52.6692 76.458 53.2533 77.5364 53.1359 77.7007C52.9524 77.9576 52.7066 77.2378 52.4936 77.0049C51.5547 75.9779 50.6282 74.9393 49.7561 73.8545C49.1191 73.062 47.9657 71.824 48.7926 70.7729C49.9977 69.2411 52.5457 69.1832 54.2906 69.0677C54.6362 69.0448 56.676 68.5721 56.5463 69.3506C56.384 70.3245 55.5375 71.0281 54.8105 71.614C53.0464 73.0358 50.9432 74.318 48.8691 75.2232C48.2246 75.5045 39.9903 78.3483 39.9838 78.3124C39.8886 77.7889 41.404 76.3415 41.6966 76.0567C42.9104 74.8752 44.392 74.0326 45.6423 72.8986C47.5308 71.1858 42.1969 76.7299 40.0755 78.1442C39.9454 78.2309 39.7008 78.4668 39.6626 78.1901C39.5449 77.3365 39.7114 76.3575 39.8003 75.5138C39.886 74.6994 40.0033 73.8898 40.1367 73.0821C40.1788 72.8271 40.2032 72.3653 40.4273 72.868C41.9143 76.2047 40.153 80.0243 37.7586 82.4186C37.2242 82.953 36.2408 81.5206 35.9617 81.2028C35.6163 80.8098 35.2705 80.3966 35.0211 79.9335C34.9391 79.7811 35.0737 80.2757 35.1052 80.4458C35.3007 81.5015 35.0785 82.421 34.4782 83.3133C33.9199 84.1432 33.5309 82.131 33.4842 81.8604C33.4731 81.7967 33.3965 79.4978 33.8665 80.1476C34.6722 81.2614 34.1651 83.4414 33.6906 84.552C33.3936 85.2472 32.1652 87.3889 31.3278 86.0355C30.8095 85.1977 29.7164 82.5108 30.9073 81.761C31.7725 81.2163 31.8012 82.6611 31.7407 83.1145C31.5627 84.4496 30.8756 86.1316 29.5997 86.7696C28.3239 87.4074 27.1265 86.0777 26.7857 84.9344C26.7074 84.6714 26.9915 83.0266 27.3898 83.7568C27.8465 84.5941 27.5636 86.3623 27.3363 87.2284C27.1662 87.8767 26.6868 88.6637 25.9599 88.7959C25.6474 88.8527 25.6372 88.974 25.6082 89.2929C25.5545 89.8835 24.7817 88.6853 24.7288 88.5818C24.16 87.4689 24.3694 86.0366 24.3694 84.8197C24.3694 83.9245 24.6496 84.9816 24.7135 85.3014C24.9028 86.2478 24.7823 87.2902 24.7823 88.253C24.7823 89.1934 24.969 90.143 25.05 91.0746C25.0938 91.5783 25.285 93.2406 24.9123 93.6133C24.4507 94.0749 24.0072 94.722 23.2683 94.722" stroke="#231F20" stroke-width="6" stroke-linecap="round"/>
<path d="M22.0295 94.1715C22.2025 93.5372 23.1654 92.9348 23.6124 92.5122C24.3695 91.7963 24.8864 90.9149 25.6081 90.18C26.9532 88.8104 28.9434 88.6652 30.7008 88.146C30.9229 88.0803 32.1653 87.6308 32.3295 87.9319C32.5917 88.4125 31.6681 89.6187 31.389 89.9506C30.8734 90.5634 30.2607 90.3086 30.7161 89.5606C30.8769 89.2964 32.2313 87.8694 31.7942 88.6889C31.6638 88.9334 31.1172 90.0513 30.7314 89.9811C30.4209 89.9247 31.6842 87.9297 31.7637 87.8324C33.5668 85.6246 35.8076 84.5899 38.5232 84.055C39.9017 83.7835 41.373 82.8358 42.5377 82.0593" stroke="#231F20" stroke-width="6" stroke-linecap="round"/>
<path d="M26.9845 88.6659C26.9845 89.1477 26.8845 90.7305 27.5351 90.7305C28.0078 90.7305 28.2712 90.5249 28.6974 90.3176C29.4867 89.9336 30.2926 89.6832 31.0066 89.1476C32.7747 87.8216 34.069 85.978 35.8775 84.6897C39.9948 81.7568 45.477 81.1585 50.3219 80.2776C51.0896 80.138 52.0214 80.702 52.6312 81.0805C53.2878 81.488 53.9494 81.6317 54.7264 81.6463C56.0968 81.6722 57.5399 82.3223 58.8403 82.7474C59.9609 83.1138 60.8999 83.8461 62.0136 84.185C62.5704 84.3545 63.167 84.5484 63.7341 84.6744C64.2725 84.794 64.6515 85.2809 65.1105 85.5614C65.5723 85.8436 68.3824 87.2364 67.7256 87.5648" stroke="#231F20" stroke-width="6" stroke-linecap="round"/>
<path d="M66.3491 88.253C65.6975 87.9573 65.0476 87.635 64.3687 87.4042C64.1588 87.3328 63.8531 87.3355 63.6652 87.2054C63.1511 86.8495 62.756 86.2995 62.2353 85.9208C61.0376 85.0497 59.8158 84.2114 58.6414 83.298" stroke="#231F20" stroke-width="6" stroke-linecap="round"/>
<path d="M27.8103 56.5961C26.4508 56.3489 26.119 53.9425 26.0516 52.8798C25.8849 50.2544 27.3216 47.4052 28.8273 45.3403C29.4039 44.5494 29.863 43.7299 30.3795 42.901C30.9603 41.9691 31.8242 41.4271 32.49 40.5994C32.6917 40.3486 32.9448 39.6004 32.8953 39.2536C32.7705 38.3805 31.8854 38.432 31.2818 38.2595C30.9703 38.1705 30.2982 38.2791 30.1501 37.946C30.0325 37.6813 29.9956 37.4305 29.8748 37.189" stroke="#231F20" stroke-width="6" stroke-linecap="round"/>
<path d="M45.1528 22.4617C45.8554 21.0141 46.1602 19.3243 47.2098 18.0649C47.8978 17.2392 48.261 16.1747 48.4867 15.1363C48.8183 13.6109 48.8691 12.1747 48.8691 10.6248C48.8691 9.25889 49.0067 7.78287 49.0067 6.49561" stroke="#231F20" stroke-width="6" stroke-linecap="round"/>
<path d="M29.1868 60.5876C28.56 59.7439 27.8362 58.9549 27.3287 58.0413C26.8187 57.1234 25.6007 56.8394 24.79 56.1908C23.1168 54.8523 22.69 52.6727 21.3108 51.1211C21.0226 50.7969 21.7351 51.8778 21.9531 52.2528C22.4913 53.1785 22.8122 54.1824 23.0619 55.2197C23.272 56.0924 23.6024 56.7531 24.0942 57.4907C24.2465 57.7193 24.4898 58.3908 24.7212 58.523C25.4971 58.9664 26.7093 59.288 26.7093 60.45" stroke="#231F20" stroke-width="6" stroke-linecap="round"/>
<path d="M26.8469 60.7253C25.7383 58.5872 24.4778 56.6135 23.1459 54.6156C22.4637 53.5924 21.6163 52.5433 20.5002 51.9852C19.8299 51.65 18.8862 51.0904 18.4815 50.4024C18.2622 50.0296 18.8626 50.7885 18.925 50.8841C19.2109 51.3224 19.567 51.69 19.7202 52.1917C19.9883 53.0688 20.8594 53.8277 21.2725 54.6539C21.4132 54.9352 21.7249 55.0845 21.8613 55.3574C22.131 55.8968 21.0762 54.4405 20.7143 53.958C19.4399 52.2588 18.8008 50.1686 17.4263 48.5442C16.591 47.5572 15.3765 46.9551 14.337 46.2044C13.8558 45.8568 13.3135 45.4412 12.8842 45.0344C12.4364 44.6102 12.1419 44.0933 11.7066 43.6581C11.3716 43.323 11.0069 43.1521 10.6743 42.8934C10.3195 42.6174 9.88758 41.9769 9.43557 41.8764C8.98067 41.7753 8.67963 41.5558 8.26564 41.3488C7.84808 41.14 7.30334 41.1964 6.88925 41.0123C6.42518 40.8061 6.15314 40.7956 5.6505 40.7676C4.85815 40.7236 5.93219 40.4924 6.20106 40.4924" stroke="#231F20" stroke-width="6" stroke-linecap="round"/>
<path d="M10.1926 40.7676C9.96611 40.5412 9.89846 40.3996 9.9173 40.0794C9.93609 39.76 10.3623 40.3019 10.4679 40.3547" stroke="#231F20" stroke-width="6" stroke-linecap="round"/>
<path d="M13.6335 44.8968C14.737 46.2455 15.6747 47.4064 17.0133 48.506C17.7878 49.1421 18.4238 49.9674 19.055 50.7388C19.6099 51.417 20.0302 52.1796 20.6225 52.8492C20.9 53.1629 19.8381 52.9202 19.8273 52.9181C18.7485 52.7023 17.6298 52.3359 16.6769 51.7787C16.6352 51.7543 15.4113 50.8305 15.6675 50.8305C17.0662 50.8305 18.754 52.7853 19.6591 53.6904C20.6296 54.6609 21.4685 55.7598 22.4424 56.7337" stroke="#231F20" stroke-width="6" stroke-linecap="round"/>
<path d="M18.7263 51.3658C17.402 50.2823 16.3473 48.9407 15.0177 47.856C14.5622 47.4844 13.6178 46.9296 13.3584 46.4108" stroke="#231F20" stroke-width="6" stroke-linecap="round"/>
<path d="M45.5425 16.7999C45.5425 17.168 45.3131 17.4827 45.0948 17.7624C44.8879 18.0275 44.7421 18.3139 44.5576 18.5905" stroke="#231F20" stroke-width="6" stroke-linecap="round"/>
<path d="M46.6618 20.5602C46.4135 21.1055 46.2932 21.6531 46.1669 22.2365C46.0427 22.81 45.8781 23.3722 45.7416 23.9425C45.6002 24.5336 45.4274 25.1114 45.3188 25.7083" stroke="#231F20" stroke-width="6" stroke-linecap="round"/>
<path d="M45.0502 15.457C44.9453 15.4919 44.9281 15.7453 44.9109 15.8226C44.777 16.4252 44.6757 17.0343 44.4856 17.6231C44.1461 18.6748 43.6775 19.6738 43.3714 20.7393C43.0822 21.7462 42.7877 22.7511 42.4836 23.7535C42.3535 24.1825 42.2091 24.6155 42.1056 25.0517C42.0746 25.1821 42.0749 25.3365 42.0061 25.4397" stroke="#231F20" stroke-width="6" stroke-linecap="round"/>
<path d="M38.2905 28.3494C38.4339 28.3207 38.5806 28.1064 38.6735 28.0087C38.922 27.7475 39.1715 27.4581 39.3823 27.1656C39.8427 26.527 40.2007 25.8395 40.5935 25.1611C41.4272 23.7209 42.5467 22.4206 43.2595 20.9159C43.8269 19.7181 44.5698 18.6112 45.162 17.4267C45.4706 16.8094 45.6208 16.1171 45.9454 15.5117C46.3973 14.669 46.8262 13.8059 47.3331 12.9949" stroke="#231F20" stroke-width="6" stroke-linecap="round"/>
<path d="M47.7808 12.0995C47.7948 12.0157 47.876 11.776 47.8704 11.8608C47.8269 12.5119 47.5799 13.2264 47.4277 13.8553C47.0298 15.4991 46.519 17.118 46.2091 18.782C45.9642 20.0968 45.7924 21.4428 45.652 22.7736C45.6296 22.9853 45.6247 23.2023 45.6321 23.4152C45.6379 23.5845 46.0484 23.1114 46.0524 23.1069C46.8413 22.2165 47.4483 21.1484 48.0245 20.115C48.839 18.6545 49.5628 17.1544 50.4518 15.7355C50.4928 15.6701 50.5671 15.4501 50.616 15.6186C50.7787 16.1802 50.8914 16.7587 51.0487 17.3222C51.5478 19.1096 52.119 20.8968 52.904 22.5821C53.0899 22.9812 53.0956 22.3523 53.1104 22.2165C53.2574 20.8661 53.4231 19.5275 53.6153 18.1827C53.6455 17.9712 53.6732 17.7592 53.6874 17.546C53.6915 17.484 53.7249 17.6646 53.7396 17.7251C54.1759 19.5161 54.8035 21.2787 55.5029 22.9825C55.648 23.336 55.7932 23.6904 55.9431 24.042C55.9432 24.0424 56.008 24.2428 56.0152 24.124C56.042 23.6812 56.0007 23.2336 55.9281 22.7985" stroke="#231F20" stroke-width="6" stroke-linecap="round"/>
</svg>
