<svg width="202" height="202" viewBox="0 0 202 202" fill="none" xmlns="http://www.w3.org/2000/svg">
<path d="M92.7367 11.8049C95.3547 5.64583 96.6643 2.56628 98.4873 1.61795C100.071 0.794017 101.93 0.794017 103.513 1.61795C105.336 2.56628 106.646 5.64583 109.264 11.8049L130.117 60.863C130.892 62.6838 131.279 63.5941 131.878 64.2913C132.407 64.9082 133.055 65.4016 133.778 65.7394C134.596 66.1212 135.541 66.2258 137.432 66.435L188.371 72.0727C194.766 72.7804 197.963 73.1342 199.387 74.6591C200.623 75.9836 201.197 77.8383 200.939 79.6721C200.643 81.7829 198.255 84.0396 193.478 88.5542L155.427 124.512C154.015 125.846 153.308 126.513 152.862 127.326C152.466 128.046 152.218 128.844 152.136 129.669C152.042 130.602 152.239 131.577 152.633 133.528L163.261 186.07C164.596 192.666 165.263 195.964 164.32 197.855C163.5 199.498 161.996 200.644 160.253 200.953C158.247 201.309 155.462 199.625 149.891 196.256L105.52 169.42C103.874 168.424 103.05 167.927 102.175 167.731C101.4 167.559 100.6 167.559 99.8251 167.731C98.9498 167.927 98.1265 168.424 96.4799 169.42L52.1095 196.256C46.539 199.625 43.7537 201.309 41.7474 200.953C40.0046 200.644 38.5 199.498 37.6808 197.855C36.7378 195.964 37.4049 192.666 38.7392 186.07L49.3669 133.528C49.7614 131.577 49.9586 130.602 49.8649 129.669C49.782 128.844 49.5347 128.046 49.1389 127.326C48.6916 126.513 47.9855 125.846 46.5734 124.512L8.52309 88.5542C3.74608 84.0396 1.35752 81.7829 1.06055 79.6721C0.802704 77.8383 1.37731 75.9836 2.61383 74.6591C4.0374 73.1342 7.235 72.7804 13.6302 72.0727L64.5689 66.435C66.4596 66.2258 67.4048 66.1212 68.2222 65.7394C68.9454 65.4016 69.5929 64.9082 70.1229 64.2913C70.7217 63.5941 71.1087 62.6838 71.8828 60.863L92.7367 11.8049Z" fill="#ECECEC" stroke="#ECECEC" stroke-linecap="round" stroke-linejoin="round"/>
</svg>
