<svg width="725" height="726" viewBox="0 0 725 726" fill="none" xmlns="http://www.w3.org/2000/svg">
<path d="M163.178 586.25C163.61 553.424 176.949 522.089 200.309 499.023C223.669 475.957 255.171 463.016 288 463H438C470.828 463.017 502.33 475.958 525.69 499.024C549.05 522.089 562.39 553.424 562.823 586.25C507.994 635.657 436.805 663 363 663C289.195 663 218.006 635.657 163.178 586.25ZM475.5 275.5C475.5 297.75 468.902 319.501 456.54 338.002C444.179 356.502 426.609 370.922 406.052 379.436C385.495 387.951 362.875 390.179 341.052 385.838C319.229 381.498 299.184 370.783 283.451 355.05C267.717 339.316 257.003 319.271 252.662 297.448C248.321 275.625 250.549 253.005 259.064 232.448C267.578 211.891 281.998 194.321 300.498 181.96C318.999 169.598 340.75 163 363 163C392.837 163 421.452 174.853 442.55 195.95C463.647 217.048 475.5 245.663 475.5 275.5Z" stroke="#474241" stroke-width="25"/>
<path d="M631.722 586.25C667.616 543.053 692.578 491.847 704.498 436.964C716.417 382.08 714.944 325.133 700.202 270.939C685.46 216.745 657.883 166.899 619.804 125.616C581.724 84.3335 534.263 52.8287 481.434 33.7666C428.604 14.7045 371.961 8.64591 316.295 16.1032C260.63 23.5604 207.578 44.3142 161.629 76.6092C115.68 108.904 78.1842 151.79 52.3135 201.64C26.4428 251.49 12.9581 306.837 13 363C13.0196 444.655 41.7952 523.695 94.2775 586.25L93.7775 586.665C95.5275 588.777 97.5275 590.582 99.3325 592.645C101.582 595.235 103.993 597.645 106.333 600.165C113.333 607.748 120.517 615.045 128.082 621.915C130.37 623.992 132.742 625.945 135.082 627.958C143.082 634.855 151.292 641.387 159.832 647.49C160.935 648.27 161.913 649.222 163.023 650.005V649.688C221.575 690.891 291.425 713.005 363.023 713.005C434.62 713.005 504.47 690.891 563.023 649.688V650C564.133 649.217 565.11 648.265 566.212 647.485C574.742 641.382 582.962 634.85 590.962 627.953C593.302 625.953 595.675 623.987 597.963 621.91C605.525 615.037 612.712 607.74 619.712 600.16C622.045 597.645 624.447 595.23 626.712 592.64C628.51 590.577 630.518 588.772 632.268 586.66L631.722 586.25ZM363 163C385.25 163 407.001 169.598 425.502 181.96C444.002 194.321 458.422 211.891 466.936 232.448C475.451 253.005 477.679 275.625 473.338 297.448C468.998 319.271 458.283 339.316 442.549 355.049C426.816 370.783 406.771 381.498 384.948 385.838C363.125 390.179 340.505 387.951 319.948 379.436C299.391 370.922 281.821 356.502 269.46 338.002C257.098 319.501 250.5 297.75 250.5 275.5C250.5 245.663 262.353 217.048 283.45 195.95C304.548 174.853 333.163 163 363 163ZM163.177 586.25C163.609 553.424 176.948 522.088 200.308 499.022C223.669 475.956 255.171 463.016 288 463H438C470.829 463.016 502.331 475.957 525.691 499.023C549.051 522.089 562.39 553.424 562.823 586.25C507.994 635.657 436.805 663 363 663C289.195 663 218.006 635.657 163.177 586.25Z" fill="#474241" stroke="#474241" stroke-width="25"/>
</svg>
