<svg width="170" height="170" viewBox="0 0 170 170" fill="none" xmlns="http://www.w3.org/2000/svg">
<path d="M114.778 79.7919C114.702 79.4467 114.55 79.1348 114.35 78.8769L82.7009 18.3784L78.1796 27.0168H78.1868L50.881 79.2055C50.812 79.3344 50.7576 79.4675 50.7177 79.6089C47.597 85.9308 45.946 93.0761 45.946 100.305C45.946 123.533 62.4347 142.432 82.7045 142.432C102.974 142.432 119.459 123.533 119.459 100.305C119.459 93.1468 117.841 86.0722 114.778 79.7919ZM82.7082 137.999C64.5756 137.999 49.8178 121.088 49.8178 100.305C49.8178 93.7166 51.3527 87.1993 54.252 81.4597C54.3064 81.3516 54.35 81.2434 54.3863 81.1312L82.7009 27.0085L111.012 81.1228C111.048 81.2393 111.095 81.3516 111.153 81.4597C114.056 87.1993 115.588 93.7166 115.588 100.305C115.588 121.092 100.833 137.999 82.7009 137.999H82.7082Z" fill="#D6C18A"/>
<circle cx="85" cy="85" r="82.5" stroke="#D6C18A" stroke-width="5"/>
</svg>
