<svg width="170" height="170" viewBox="0 0 170 170" fill="none" xmlns="http://www.w3.org/2000/svg">
<path d="M79.7267 128.998H36.9448C36.0922 128.979 35.259 128.723 34.5282 128.256C33.7975 127.789 33.1946 127.126 32.7795 126.335C32.3645 125.543 32.1518 124.649 32.1626 123.743C32.1733 122.836 32.4073 121.949 32.841 121.168L49.4613 91.2679" stroke="#D6C18A" stroke-width="5" stroke-linecap="round"/>
<path d="M101.456 128.998H133.055C133.908 128.979 134.741 128.724 135.472 128.256C136.203 127.789 136.805 127.127 137.221 126.335C137.636 125.543 137.848 124.649 137.837 123.743C137.827 122.837 137.593 121.949 137.159 121.168L116.64 84.3982" stroke="#D6C18A" stroke-width="5" stroke-linecap="round"/>
<path d="M59.1874 73.6244L80.9374 34.695C81.373 33.9225 81.9894 33.2832 82.7265 32.8394C83.4637 32.3955 84.2965 32.1622 85.1438 32.1622C85.991 32.1622 86.8238 32.3955 87.561 32.8394C88.2982 33.2832 88.9146 33.9225 89.3501 34.695L105.765 64.2901" stroke="#D6C18A" stroke-width="5" stroke-linecap="round"/>
<path d="M113.767 117.832L101.764 128.736C101.741 128.76 101.723 128.789 101.71 128.821C101.698 128.853 101.691 128.887 101.691 128.922C101.691 128.956 101.698 128.99 101.71 129.022C101.723 129.054 101.741 129.083 101.764 129.107L113.767 142.432" stroke="#D6C18A" stroke-width="5" stroke-linecap="round"/>
<path d="M53.4213 107.821L49.4201 91.5299C49.4107 91.4969 49.3953 91.4662 49.3748 91.4396C49.3542 91.413 49.3289 91.3909 49.3003 91.3747C49.2717 91.3585 49.2404 91.3485 49.2081 91.3451C49.1759 91.3418 49.1433 91.3453 49.1123 91.3554L32.6972 96.9822" stroke="#D6C18A" stroke-width="5" stroke-linecap="round"/>
<path d="M90.1092 60.1463L105.704 64.3772L109.069 46.0357" stroke="#D6C18A" stroke-width="5" stroke-linecap="round"/>
<circle cx="85" cy="85" r="82.5" stroke="#D6C18A" stroke-width="5"/>
</svg>
