<svg width="567" height="567" viewBox="0 0 567 567" fill="none" xmlns="http://www.w3.org/2000/svg">
<path d="M233.667 450.333C353.328 450.333 450.333 353.328 450.333 233.667C450.333 114.005 353.328 17 233.667 17C114.005 17 17 114.005 17 233.667C17 353.328 114.005 450.333 233.667 450.333Z" stroke="#D6C18A" stroke-width="33.3333" stroke-linejoin="round"/>
<path d="M538.547 562.12C545.057 568.627 555.61 568.627 562.12 562.12C568.627 555.61 567.5 545.5 562.12 538.547L556.227 544.44L550.333 550.333L538.547 562.12ZM562.12 538.547L395.453 371.88L371.88 395.453L538.547 562.12L550.333 550.333L556.227 544.44L562.12 538.547Z" fill="#D6C18A"/>
</svg>
