<svg width="100" height="100" viewBox="0 0 100 100" fill="none" xmlns="http://www.w3.org/2000/svg">
<path d="M50.0009 3.87074C50.4369 3.87074 50.7244 4.66614 50.7244 4.66614L64.4846 33.9803L96.8757 38.9293L73.4383 62.9631L78.9715 96.8747L50.0009 80.851L21.0304 96.8747L26.5635 62.9631L3.12616 38.9293L35.5172 33.9803L49.2649 4.69114C49.2649 4.69114 49.565 3.87074 50.0009 3.87074ZM50.0009 0C48.7899 0 47.6883 0.700077 47.1711 1.79707L33.3968 31.1409L2.65425 35.8383C1.49637 36.0149 0.535371 36.8259 0.16191 37.937C-0.209988 39.0465 0.0697169 40.2716 0.888517 41.1107L23.2243 64.0148L17.9458 96.3684C17.7521 97.5497 18.2505 98.7389 19.2303 99.4265C19.7678 99.8078 20.3991 100 21.0304 100C21.5492 100 22.0711 99.8687 22.543 99.6093L50.0009 84.4217L77.4589 99.6093C77.9308 99.8687 78.4527 100 78.9715 100C79.6028 100 80.234 99.8078 80.77 99.4281C81.7498 98.7405 82.2482 97.5513 82.0545 96.3699L76.776 64.0164L99.1118 41.1123C99.929 40.2732 100.21 39.048 99.8384 37.9385C99.4665 36.8275 98.5039 36.018 97.346 35.8399L66.6035 31.1425L52.8308 1.79707C52.3136 0.700077 51.2119 0 50.0009 0Z" fill="#EDCF5D"/>
</svg>
