<svg width="170" height="170" viewBox="0 0 170 170" fill="none" xmlns="http://www.w3.org/2000/svg">
<path d="M136.709 68.5025C136.673 68.3198 136.606 68.1468 136.51 67.9936C136.414 67.8404 136.292 67.7102 136.15 67.6104C136.008 67.5107 135.85 67.4435 135.685 67.4128C135.519 67.3822 135.35 67.3886 135.187 67.4318C92.9406 77.0339 95.8708 117.908 96.0164 119.631V140.811C96.0533 141.165 96.2056 141.492 96.4445 141.729C96.6834 141.966 96.9921 142.097 97.312 142.097C97.6318 142.097 97.9405 141.966 98.1794 141.729C98.4183 141.492 98.5706 141.165 98.6075 140.811V120.948C113.274 120.675 124.071 115.861 130.64 106.548C141.491 91.1561 136.909 69.4205 136.709 68.5025ZM128.601 104.757C122.712 113.105 112.987 117.54 99.74 118.025C107.502 105.164 120.719 93.6729 120.86 93.559C121.016 93.452 121.149 93.3098 121.252 93.1415C121.355 92.9732 121.426 92.7826 121.458 92.5821C121.491 92.3816 121.486 92.1757 121.442 91.9778C121.399 91.7798 121.319 91.5942 121.207 91.433C121.095 91.2718 120.954 91.1386 120.793 91.0421C120.632 90.9455 120.454 90.8878 120.272 90.8727C120.09 90.8575 119.907 90.8853 119.734 90.9541C119.562 91.023 119.405 91.1314 119.273 91.2723C118.706 91.7568 106.513 102.367 98.4923 114.965C98.7597 104.443 102.707 78.4267 134.439 70.5663C135.235 75.486 137.189 92.578 128.601 104.757Z" fill="#D6C18A"/>
<path d="M90.33 104.772C90.7321 97.7788 91.8255 45.0423 35.2695 32.1967C34.9404 32.1142 34.5953 32.1806 34.31 32.3814C34.0247 32.5821 33.8226 32.9007 33.7479 33.2674C33.4675 34.5585 27.042 65.041 42.2363 86.5901C51.5333 99.7675 66.8929 106.528 87.8432 106.77V140.811C87.822 141.015 87.8397 141.221 87.8951 141.417C87.9506 141.612 88.0425 141.793 88.1648 141.946C88.2872 142.099 88.4372 142.221 88.6051 142.305C88.7729 142.389 88.9548 142.432 89.1388 142.432C89.3227 142.432 89.5046 142.389 89.6725 142.305C89.8403 142.221 89.9903 142.099 90.1127 141.946C90.2351 141.793 90.327 141.612 90.3824 141.417C90.4378 141.221 90.4555 141.015 90.4343 140.811V105.375C90.4339 105.23 90.4149 105.086 90.3778 104.946C90.3756 104.92 90.343 104.813 90.33 104.772ZM44.2905 84.8193C31.6285 66.8796 34.9652 41.4597 36.0151 35.3215C80.4613 46.0476 87.115 81.5879 87.8128 97.4833C83.2284 85.6599 72.1511 62.9845 51.6942 52.8591C51.388 52.7495 51.0562 52.7698 50.7627 52.9162C50.4691 53.0625 50.2344 53.3246 50.1037 53.652C49.9729 53.9795 49.9554 54.3492 50.0543 54.6902C50.1533 55.0312 50.3619 55.3194 50.6399 55.4995C73.8314 66.9789 84.7848 96.2673 87.3041 103.898C67.4711 103.551 52.9962 97.1393 44.2905 84.8193Z" fill="#D6C18A"/>
<circle cx="85" cy="85" r="82.5" stroke="#D6C18A" stroke-width="5"/>
</svg>
