<svg width="58" height="59" viewBox="0 0 58 59" fill="none" xmlns="http://www.w3.org/2000/svg">
<path fill-rule="evenodd" clip-rule="evenodd" d="M28.9487 7.98405e-05C28.9439 0.00156346 28.9392 0.00307604 28.9344 0.00461705C28.9265 0.00454143 28.9186 0.00454143 28.9106 0.00461705C28.7708 0.0141609 28.6339 0.0471837 28.5061 0.102162L1.00422 11.3153C0.721833 11.3578 0.464935 11.4959 0.280542 11.7041C0.0961489 11.9124 -0.00340766 12.1771 8.9076e-05 12.4496V46.4816C-0.00130337 46.6433 0.0335815 46.8034 0.102406 46.9512C0.103962 46.9557 0.105549 46.9602 0.107165 46.9648C0.116832 46.9855 0.127148 47.0059 0.138098 47.026C0.265945 47.2708 0.482274 47.4634 0.747242 47.5682L28.2706 58.7859C28.5054 58.9473 28.7939 59.0215 29.0819 58.9946C29.2904 58.9841 29.4923 58.9215 29.6673 58.8131L57.2549 47.5682C57.4484 47.4932 57.6179 47.3708 57.7461 47.2135C57.8743 47.0562 57.9569 46.8695 57.9854 46.6721C57.9891 46.6518 57.9923 46.6314 57.9949 46.6109C57.9969 46.5928 57.9985 46.5746 57.9996 46.5564C58.0001 46.5375 58.0001 46.5186 57.9996 46.4997C57.9997 46.4937 57.9997 46.4876 57.9996 46.4816V12.4496C58.0027 12.1805 57.9053 11.9191 57.7249 11.7121C57.5444 11.5052 57.2926 11.3662 57.0145 11.3199L29.4912 0.102162C29.467 0.0907816 29.4424 0.0801887 29.4175 0.070403C29.4143 0.0688772 29.4111 0.0673651 29.4079 0.0658664C29.3727 0.0559758 29.3369 0.0476487 29.3009 0.0409125C29.289 0.037712 29.2771 0.034687 29.2652 0.0318387C29.2384 0.0248929 29.2115 0.0188401 29.1843 0.0136909C29.1724 0.012007 29.1605 0.0104943 29.1486 0.00915371C29.1225 0.00681659 29.0963 0.00530376 29.0701 0.00461705C29.0297 0.00113612 28.9892 -0.000378397 28.9487 7.98405e-05ZM28.9987 2.37066L34.8307 4.74578L10.1128 14.8247C10.0887 14.8345 10.0649 14.8451 10.0414 14.8565L4.20699 12.4768L29.0011 2.37066H28.9987ZM37.8574 5.98211L44.934 8.86537L19.7544 19.1326C19.5218 19.2279 19.3271 19.3915 19.1987 19.5996C19.0704 19.8077 19.015 20.0494 19.0406 20.2895C19.0363 20.3333 19.0347 20.3772 19.0358 20.4211V32.5575L16.4565 28.8667C16.2957 28.637 16.0526 28.4711 15.7727 28.4001C15.4927 28.3291 15.1953 28.3579 14.936 28.4811L11.8974 29.9284V16.5669L37.8574 5.98211ZM47.9607 10.0972L53.7975 12.4768L29.0011 22.583L23.169 20.2079L47.8917 10.1289C47.9158 10.1191 47.9396 10.1085 47.963 10.0972H47.9607ZM2.37956 14.1963L9.51796 17.1068V31.7636C9.51797 31.957 9.56986 32.1472 9.6687 32.3161C9.76754 32.485 9.91005 32.627 10.0827 32.7287C10.2553 32.8303 10.4523 32.8881 10.655 32.8967C10.8577 32.9052 11.0593 32.8642 11.2407 32.7776L15.0574 30.956L19.1691 36.8359C19.2996 37.0756 19.5156 37.2631 19.7782 37.3645C19.8133 37.3774 19.8491 37.3888 19.8853 37.3985C19.8869 37.4 19.8885 37.4016 19.8901 37.4031C19.9662 37.424 20.0443 37.4377 20.1233 37.4439C20.1628 37.4473 20.2025 37.4488 20.2422 37.4484C20.2819 37.4488 20.3216 37.4473 20.3612 37.4439C20.4012 37.4383 20.4409 37.4307 20.4802 37.4212C20.5042 37.4159 20.528 37.4098 20.5516 37.4031C20.5651 37.4003 20.5786 37.3972 20.592 37.394C20.8581 37.3142 21.0863 37.1478 21.2368 36.9239C21.3873 36.7 21.4505 36.4328 21.4153 36.169V21.9637L27.8089 24.5679V56.1318L2.37956 45.7647V14.1963ZM55.6202 14.2009V45.7647L30.1884 56.1363V24.5679L55.6202 14.2009ZM40.6842 40.2704C40.6795 40.2719 40.6747 40.2734 40.67 40.275C40.5221 40.2818 40.3768 40.3149 40.2417 40.3725L33.3055 43.1991C33.0152 43.317 32.7859 43.54 32.6681 43.8191C32.5503 44.0982 32.5536 44.4104 32.6773 44.6872C32.801 44.964 33.035 45.1825 33.3277 45.2948C33.6204 45.4072 33.948 45.404 34.2383 45.2861L41.1815 42.4595C41.445 42.3614 41.6632 42.177 41.797 41.9394C41.9308 41.7018 41.9713 41.4265 41.9115 41.1629C41.8516 40.8994 41.6952 40.6648 41.4703 40.5012C41.2454 40.3376 40.9667 40.2558 40.6842 40.2704ZM47.6085 41.9718C47.463 41.9795 47.3203 42.0125 47.1873 42.0694L40.244 44.8959L33.3055 47.727C33.0152 47.8449 32.7859 48.0679 32.6681 48.347C32.5503 48.6261 32.5536 48.9384 32.6773 49.2151C32.801 49.4919 33.035 49.7105 33.3277 49.8228C33.6204 49.9351 33.948 49.9319 34.2383 49.814L41.1815 46.9829L48.1201 44.1518C48.3782 44.0493 48.5902 43.8633 48.7188 43.6265C48.8474 43.3898 48.8844 43.1174 48.8234 42.8573C48.7623 42.5971 48.6071 42.3657 48.3849 42.2038C48.1628 42.0419 47.8879 41.9597 47.6085 41.9718Z" fill="#4E82F8"/>
</svg>
