<svg width="173" height="72" viewBox="0 0 173 72" fill="none" xmlns="http://www.w3.org/2000/svg">
<path d="M160.5 1H13C6.37258 1 1 6.37258 1 13V54.0721C1 60.6713 6.32863 66.0321 12.9277 66.0719L81.546 66.4852C83.0398 66.4942 84.39 67.3774 84.9967 68.7426L85.5837 70.0632C85.8368 70.6329 86.4017 71 87.0251 71C87.6226 71 88.1688 70.6624 88.436 70.128L89.25 68.5C90.0161 66.9678 91.5821 66 93.2951 66H160.5C167.127 66 172.5 60.6274 172.5 54V13C172.5 6.37258 167.127 1 160.5 1Z" fill="#343434" stroke="#343434"/>
</svg>
