<svg width="800" height="800" viewBox="0 0 800 800" fill="none" xmlns="http://www.w3.org/2000/svg">
<path d="M400 350C446.024 350 483.333 312.691 483.333 266.667C483.333 220.643 446.024 183.333 400 183.333C353.976 183.333 316.667 220.643 316.667 266.667C316.667 312.691 353.976 350 400 350Z" fill="#67656E" stroke="#67656E" stroke-width="33.3333" stroke-linecap="round"/>
<path d="M458.93 216.667C465.523 205.248 475.357 196.041 487.18 190.209C499.007 184.377 512.297 182.183 525.37 183.904C538.44 185.625 550.71 191.184 560.623 199.878C570.537 208.571 577.65 220.01 581.063 232.746C584.473 245.482 584.033 258.944 579.797 271.43C575.557 283.915 567.71 294.864 557.25 302.891C546.79 310.917 534.183 315.662 521.027 316.524C507.87 317.387 494.753 314.328 483.333 307.735" fill="#67656E"/>
<path d="M458.93 216.667C465.523 205.248 475.357 196.041 487.18 190.209C499.007 184.377 512.297 182.183 525.37 183.904C538.44 185.625 550.71 191.184 560.623 199.878C570.537 208.571 577.65 220.01 581.063 232.746C584.473 245.482 584.033 258.944 579.797 271.43C575.557 283.915 567.71 294.864 557.25 302.891C546.79 310.917 534.183 315.662 521.027 316.524C507.87 317.387 494.753 314.328 483.333 307.735" stroke="#67656E" stroke-width="33.3333"/>
<path d="M341.07 216.667C334.477 205.248 324.645 196.041 312.819 190.209C300.994 184.377 287.704 182.183 274.632 183.904C261.559 185.625 249.29 191.184 239.377 199.878C229.464 208.571 222.351 220.01 218.938 232.746C215.526 245.482 215.966 258.944 220.205 271.43C224.443 283.915 232.289 294.864 242.749 302.891C253.21 310.917 265.816 315.662 278.973 316.524C292.13 317.387 305.248 314.328 316.667 307.735" fill="#67656E"/>
<path d="M341.07 216.667C334.477 205.248 324.645 196.041 312.819 190.209C300.994 184.377 287.704 182.183 274.632 183.904C261.559 185.625 249.29 191.184 239.377 199.878C229.464 208.571 222.351 220.01 218.938 232.746C215.526 245.482 215.966 258.944 220.205 271.43C224.443 283.915 232.289 294.864 242.749 302.891C253.21 310.917 265.816 315.662 278.973 316.524C292.13 317.387 305.248 314.328 316.667 307.735" stroke="#67656E" stroke-width="33.3333"/>
<path d="M400 416.667C536.007 416.667 571.117 526.74 580.18 583.567C583.08 601.747 568.41 616.667 550 616.667H250C231.59 616.667 216.921 601.747 219.82 583.567C228.883 526.74 263.992 416.667 400 416.667Z" fill="#67656E" stroke="#67656E" stroke-width="33.3333" stroke-linecap="round"/>
<path d="M436.237 419.53L423.93 408.294L403.247 430.944L433.503 435.97L436.237 419.53ZM572.71 550L556.7 554.634L560.183 566.667H572.71V550ZM516.667 400C550.923 400 574.983 416.757 592.61 440.23C610.59 464.177 621.147 494.354 627.05 517.924L659.387 509.827C653.013 484.384 641.097 449.29 619.267 420.217C597.087 390.677 564.007 366.667 516.667 366.667V400ZM448.543 430.767C465.223 412.5 487.023 400 516.667 400V366.667C476.093 366.667 445.787 384.354 423.93 408.294L448.543 430.767ZM433.503 435.97C510.187 448.714 542.633 506.004 556.7 554.634L588.72 545.367C573.017 491.087 533.967 418.877 438.97 403.09L433.503 435.97ZM613.167 533.334H572.71V566.667H613.167V533.334ZM627.05 517.924C628.843 525.087 623.583 533.334 613.167 533.334V566.667C642.19 566.667 667.173 540.924 659.387 509.827L627.05 517.924Z" fill="#67656E"/>
<path d="M363.763 419.53L366.497 435.97L396.753 430.944L376.07 408.294L363.763 419.53ZM227.289 550V566.667H239.818L243.299 554.634L227.289 550ZM283.333 400C312.977 400 334.777 412.5 351.453 430.767L376.07 408.294C354.213 384.354 323.908 366.667 283.333 366.667V400ZM172.948 517.924C178.851 494.354 189.409 464.177 207.389 440.23C225.016 416.757 249.075 400 283.333 400V366.667C235.993 366.667 202.914 390.677 180.733 420.217C158.904 449.29 146.985 484.384 140.614 509.827L172.948 517.924ZM186.833 533.334C176.416 533.334 171.155 525.087 172.948 517.924L140.614 509.827C132.826 540.924 157.808 566.667 186.833 566.667V533.334ZM227.289 533.334H186.833V566.667H227.289V533.334ZM243.299 554.634C257.368 506.004 289.812 448.714 366.497 435.97L361.03 403.09C266.034 418.877 226.983 491.087 211.279 545.367L243.299 554.634Z" fill="#67656E"/>
<path d="M304.5 385L210.5 400L166.206 493.017L145.5 523.5L184.5 552H237.5L304.5 494.5L349.5 410L304.5 385Z" fill="#67656E"/>
<path d="M165.5 494.5L166.206 493.017M166.206 493.017L210.5 400L304.5 385L349.5 410L304.5 494.5L237.5 552H184.5L145.5 523.5L166.206 493.017Z" stroke="#67656E"/>
<path d="M513.5 386.5L471.5 405.5L467.5 402.5L439.5 420.5L502.5 493.5L588 546.5L649.5 532.5L610 420.5L513.5 386.5Z" fill="#67656E" stroke="#67656E"/>
</svg>
