<svg width="800" height="800" viewBox="0 0 800 800" fill="none" xmlns="http://www.w3.org/2000/svg">
<path d="M166.667 425.32C166.667 380.063 166.667 357.433 175.815 337.54C184.964 317.65 202.146 302.923 236.508 273.469L269.842 244.898C331.952 191.66 363.007 165.041 400 165.041C436.993 165.041 468.047 191.66 530.157 244.898L563.49 273.469C597.853 302.923 615.037 317.65 624.183 337.54C633.333 357.433 633.333 380.063 633.333 425.32V566.667C633.333 629.52 633.333 660.947 613.807 680.473C594.28 700 562.853 700 500 700H300C237.146 700 205.719 700 186.193 680.473C166.667 660.947 166.667 629.52 166.667 566.667V425.32Z" stroke="#67656E" stroke-width="33.3333"/>
<path d="M483.333 700V533.333C483.333 514.923 468.41 500 450 500H350C331.591 500 316.667 514.923 316.667 533.333V700" stroke="#67656E" stroke-width="33.3333" stroke-linecap="round" stroke-linejoin="round"/>
<path d="M346.195 501.457C336.017 512.161 313.16 563.028 303.15 680.87L284.63 714L176.017 687.496L160 533.058V361.801L208.05 287.385L346.195 172.704L421.273 162L518.375 227.241L628.991 331.729L638 408.183V644.172L603.964 700.748L484.339 705.845V533.058L452.306 506.044L346.195 501.457Z" fill="#67656E" stroke="#67656E"/>
</svg>
