<svg width="800" height="800" viewBox="0 0 800 800" fill="none" xmlns="http://www.w3.org/2000/svg">
<path d="M200 388.563C200 361.313 200 347.686 205.075 335.436C210.149 323.184 219.784 313.549 239.052 294.281L260.948 272.385C280.216 253.117 289.851 243.482 302.102 238.408C314.353 233.333 327.978 233.333 355.23 233.333H444.77C472.02 233.333 485.647 233.333 497.897 238.408C510.15 243.482 519.783 253.117 539.053 272.385L560.947 294.281C580.217 313.549 589.85 323.184 594.927 335.436C600 347.686 600 361.313 600 388.563V533.333C600 596.186 600 627.613 580.473 647.14C560.947 666.666 529.52 666.666 466.667 666.666H333.333C270.479 666.666 239.052 666.666 219.526 647.14C200 627.613 200 596.186 200 533.333V388.563Z" stroke="#67656E" stroke-width="33.3333"/>
<path d="M300 233.333L204.623 169.748C201.823 167.882 198.177 167.882 195.377 169.748L108.458 227.694C104.082 230.611 103.469 236.802 107.188 240.521L193.096 326.429C197.517 330.85 200 336.846 200 343.096C200 356.113 210.553 366.666 223.57 366.666H576.43C589.447 366.666 600 356.113 600 343.096C600 336.846 602.483 330.85 606.903 326.429L692.813 240.521C696.53 236.802 695.917 230.611 691.543 227.694L604.623 169.748C601.823 167.882 598.177 167.882 595.377 169.748L500 233.333" stroke="#67656E" stroke-width="33.3333" stroke-linecap="round"/>
<path d="M214 327.5L309.5 232L195.5 170L103 232L146.5 280L214 327.5Z" fill="#67656E"/>
<path d="M602.5 163.5L474 232L602.5 327.5L694 232L602.5 163.5Z" fill="#67656E"/>
<path d="M214 327.5L309.5 232L195.5 170L103 232L146.5 280L214 327.5Z" stroke="#67656E"/>
<path d="M602.5 163.5L474 232L602.5 327.5L694 232L602.5 163.5Z" stroke="#67656E"/>
<path d="M585 381.5H217V650H585V381.5Z" fill="#67656E" stroke="#67656E" stroke-width="10"/>
</svg>
