<svg width="800" height="800" viewBox="0 0 800 800" fill="none" xmlns="http://www.w3.org/2000/svg">
<path d="M483.333 700V533.333C483.333 514.923 468.41 500 450 500H350C331.591 500 316.667 514.923 316.667 533.333V700" stroke="#67656E" stroke-width="33.3333" stroke-linecap="round" stroke-linejoin="round"/>
<path d="M166.667 366.667V566.666C166.667 629.52 166.667 660.946 186.193 680.473C205.719 700 237.146 700 300 700H500C562.853 700 594.28 700 613.807 680.473C633.333 660.946 633.333 629.52 633.333 566.666V366.667" stroke="#67656E" stroke-width="33.3333"/>
<path d="M177.5 683.5L301.5 689.5L312.5 694.5L315.5 525.5L343 500H463L477.5 525.5V694.5L543.5 700.5L632.5 664L636 370.5L613 366L543.5 327L495 366L396 324L326 360.5L242 327L173.5 366L177.5 683.5Z" fill="#67656E" stroke="#67656E"/>
<path d="M154.042 150.498C160.105 126.246 163.137 114.12 172.179 107.06C181.221 100 193.72 100 218.718 100H581.28C606.28 100 618.78 100 627.82 107.06C636.863 114.12 639.893 126.246 645.957 150.498L686.077 310.979C689.307 323.892 690.92 330.348 690.563 335.593C689.64 349.19 680.533 360.857 667.563 365.05C662.563 366.667 655.753 366.667 642.137 366.667C624.363 366.667 615.48 366.667 608.017 364.927C587.11 360.057 569.827 345.417 561.583 325.594C558.643 318.518 557.213 309.952 554.36 292.819C553.56 288.025 553.16 285.629 552.707 284.998C551.377 283.146 548.623 283.146 547.293 284.998C546.84 285.629 546.44 288.025 545.64 292.819L542.923 309.127C542.637 310.856 542.49 311.72 542.347 312.478C536.463 343.35 509.82 365.923 478.4 366.65C477.63 366.667 476.753 366.667 475 366.667C473.247 366.667 472.37 366.667 471.6 366.65C440.18 365.923 413.537 343.35 407.653 312.478C407.51 311.72 407.363 310.856 407.077 309.127L404.36 292.819C403.56 288.025 403.16 285.629 402.707 284.998C401.377 283.146 398.623 283.146 397.293 284.998C396.84 285.629 396.44 288.025 395.64 292.819L392.923 309.127C392.637 310.856 392.49 311.72 392.347 312.478C386.463 343.35 359.82 365.923 328.4 366.65C327.629 366.667 326.753 366.667 325 366.667C323.247 366.667 322.371 366.667 321.6 366.65C290.18 365.923 263.535 343.35 257.653 312.478C257.509 311.72 257.365 310.856 257.077 309.127L254.359 292.819C253.56 288.025 253.16 285.629 252.707 284.998C251.377 283.146 248.623 283.146 247.293 284.998C246.84 285.629 246.44 288.025 245.641 292.819C242.786 309.952 241.358 318.518 238.416 325.594C230.175 345.417 212.892 360.057 191.984 364.927C184.521 366.667 175.635 366.667 157.864 366.667C144.246 366.667 137.436 366.667 132.435 365.05C119.468 360.857 110.359 349.19 109.436 335.593C109.08 330.348 110.694 323.892 113.922 310.979L154.042 150.498Z" fill="#67656E" stroke="#67656E" stroke-width="33.3333"/>
</svg>
